<svg xmlns="http://www.w3.org/2000/svg" width="185.088" height="55.81" viewBox="0 0 185.088 55.81">
  <g id="Group_2102" data-name="Group 2102" transform="translate(-79.968 -340.621)">
    <rect id="Rectangle_1" data-name="Rectangle 1" width="180.253" height="1.271" transform="translate(84.803 395.16)" fill="#327240"/>
    <path id="Path_1" data-name="Path 1" d="M86.04,437.315v-.693l.112-.462v-.347l.112-.231.112-.231H86.6l.562-.115.337-.116.112-.116v-.116l-.112-.115-.112-.116h-5.51l-.112.116V435l.112.116.562.116.675.115.112.116h.112l.113.115.113.231v.347l.112,1.155v8.2l-.112,1.04-.113.809v.346l-.113.347-.112.577-.225.347-.112.115h-.45l-.562-.231-.562-.231-.225-.116h-.45l-.112.116-.337.231-.225.347v.462l.112.231.113.116h.112l.337.116h1.237l.787-.231.674-.231.675-.346.449-.346.45-.463.45-.462.225-.463.225-.693.112-.809.113-1.04v-7.742Z" transform="translate(0 -54.056)" fill="#327240" fill-rule="evenodd"/>
    <path id="Path_2" data-name="Path 2" d="M103.6,441.856h.562l.113.231.225.231.9,2.426.225.462v.231l-.112.116-.224.116h-.338l-.562.115v.347l.113.115h5.285v-.115l.112-.116-.112-.115v-.116l-.338-.115-.675-.116-.225-.116-.225-.116-.225-.347-.337-.808-3.036-7.511-.9-2.426-.113-.116h-.225l-.449.346-.45.346-.563.116v.231l-.113.347-.337.693-2.811,6.471-.562,1.271-.45.924-.224.347-.225.231-.338.116-.338.116-.675.115v.116l-.112.115.112.231h4.386l.112-.231-.112-.115v-.116l-.675-.115h-.225l-.225-.116H99.1l-.113-.116.113-.346.112-.578.9-2.2.113-.231.113-.231H103.6Zm-2.474-.808H100.9l-.225-.115v-.116l.113-.346.9-2.08.675-1.386.225.346.337,1.04.9,2.2.112.23v.116h-.112l-.113.115h-2.586Z" transform="translate(-9.122 -53.745)" fill="#327240" fill-rule="evenodd"/>
    <path id="Path_3" data-name="Path 3" d="M129.639,443.9v.693l-.113.462v.347l-.112.231-.225.231h-.113l-.338.116H128.4l-.449.115-.113.116v.115l.113.231h5.735V446.1l-.45-.115-.675-.116h-.225v-.116l-.113-.115-.112-.231v-.347L132,443.9v-2.426l.113-.116.225-.115h.787l.338.115.225.231.225.231.9,1.271.787,1.271.449.577.45.462.562.346.45.347.562.231.563.231.562.115h1.574l.562-.115v-.346H141l-.337-.116-.338-.115-.45-.347-.338-.231-.45-.462-.787-.924-2.136-3-.113-.23.113-.116.45-.116.337-.231.45-.231.45-.346.112-.116.225-.231.225-.462.112-.231.113-.231v-1.04l-.113-.462-.112-.347-.225-.346-.337-.347-.225-.232-.45-.231-.337-.231-.787-.231-.9-.231-1.125-.116h-3.711l-2.249.116-.112.115v.231l.112.116.563.116.562.115.112.116.113.115.225.693V443.9ZM132,436.276V435.7l.113-.231.338-.115H133.8l.225.115.338.116.449.231.45.347.338.346.225.463.112.462.112.578-.112.577-.112.578-.225.346-.338.462-.45.231-.449.231-.675.116h-1.463l-.112-.116-.113-.116v-4.043Z" transform="translate(-27.519 -54.056)" fill="#327240" fill-rule="evenodd"/>
    <path id="Path_4" data-name="Path 4" d="M159.791,443.9v.693l-.112.462v.347l-.113.231-.112.231h-.225l-.337.116h-.338l-.45.115v.116l-.112.115.112.231h4.048l1.687.115h.674l.787-.115,1.349-.115,1.237-.231,1.125-.463.9-.462.787-.462.674-.693.225-.231.225-.347.45-.693.225-.809.113-.346.113-.347v-1.733l-.337-.924-.338-.809-.225-.347-.225-.347-.675-.578-.675-.578-.9-.462-.449-.231-.45-.116-1.125-.347-1.124-.115-1.237-.116H160.8l-2.474.116-.112.115v.347h.112l.45.116.563.115.225.116.113.115.112.693V443.9Zm2.361-6.933.113-1.04V435.7l.112-.115.562-.116.45-.115h.674l1.237.115,1.125.231.562.116.45.231.449.346.45.231.338.347.337.462.225.347.225.578.225.462.112.578.113.578v1.271l-.113.462-.112.578-.112.462-.337.924-.337.347-.225.347-.45.346-.338.347-.449.231-.45.231-.562.231-.562.116h-.675l-.675.116-.674-.116-.562-.116-.45-.231-.112-.116-.225-.116-.112-.462-.112-.462-.113-.463v-6.933Z" transform="translate(-44.852 -54.056)" fill="#327240" fill-rule="evenodd"/>
    <path id="Path_5" data-name="Path 5" d="M198.651,437.315v-.693l.112-.462v-.347l.113-.231.112-.231h.225l.337-.115h.337l.45-.116v-.463H194.6l-.113.231.113.116v.116l.45.116.674.115h.113l.113.116.112.115.113.231v.347l.112,1.155v7.28l-.112.462v.347l-.113.231-.225.231h-.113l-.337.116h-.337l-.45.115v.116l-.113.115.113.231h5.735V446.1l-.45-.115-.675-.116h-.225v-.116l-.112-.116-.113-.231v-.347l-.112-1.155Z" transform="translate(-65.833 -54.056)" fill="#327240" fill-rule="evenodd"/>
    <path id="Path_6" data-name="Path 6" d="M222.492,439.164v-2.08l.112-.808v-.347l.112-.232.225-.231.113-.116.562-.115.562-.116v.347h-.112l-.562-.116-.45-.347-.225-.116-.337-.115-.225-.116h-2.7l-.112.116-.113.115V435l.113.116.45.116.675.115.224.116.225.231.225.578.112.808v6.009l-.45-.347-.9-.809-1.686-1.618-2.137-1.964-.787-.809-1.012-1.04-.562-.577-.45-.462-.337-.462-.225-.347h-3.936l-.112.231V435l.112.116.337.116.562.115.225.116.337.115.337.347.112.231.113.116.112.578v5.2l-.112,2.08v.809l-.113.347-.112.231-.112.231-.225.116-.562.116-.45.115-.112.116v.231l.112.116h4.723v-.346l-.113-.116-.45-.115-.674-.116-.225-.116-.113-.231-.112-.231-.113-.347-.112-.809-.112-1.04v-5.547l.112-.116v-.115l.787.809,1.574,1.5,4.835,4.854,1.012.924.675.462.675.577.45.116h.224l.113-.116v-7.28Z" transform="translate(-74.043 -54.056)" fill="#327240" fill-rule="evenodd"/>
    <path id="Path_7" data-name="Path 7" d="M238.131,444.017v1.155l.113.462v.347l.112.231.225.231.225.116h7.871l.225-.462.225-.693.225-.809.112-.578-.112-.116-.113-.115h-.225l-.113.115-.337.462-.225.462-.337.346-.112.116-.225.116-.45.231-.562.116-.787.116h-.9l-1.012-.116h-.675l-.45-.116-.225-.231-.112-.231-.112-.462-.113-.462v-3.235l.113-.115.112-.115h2.361l.45.115h.337l.112.115.225.115.112.231v.231l.225.693.112.115h.337l.112-.115v-3.7l-.112-.115h-.337l-.112.115-.225.578v.231l-.112.231-.225.116-.112.115-.337.115h-2.811l-.112-.115-.113-.115v-3.929l.113-.116v-.115l.112-.115h.224l.45-.116h1.462l.787.116.9.115h.225l.113.115.224.116.113.231.337.462.225.693h.562l.112-.116-.112-1.387-.225-1.04h-7.085l-.225.116-.225.231-.112.231v.346l-.113.462v7.973Z" transform="translate(-90.92 -54.056)" fill="#327240" fill-rule="evenodd"/>
    <path id="Path_8" data-name="Path 8" d="M264.132,446.478h1.012l1.012-.231.787-.346.675-.347.338-.231.224-.346.225-.231.224-.347.112-.346.112-.347v-.347l.113-.346-.113-.693-.225-.578-.224-.462-.45-.462-.338-.462-.562-.347-.45-.231-.562-.346-1.237-.578-.562-.231-.337-.231-.337-.231-.338-.347-.225-.231-.112-.347-.112-.231v-.693l.112-.347.225-.346.112-.116.113-.116.337-.231.45-.231.45-.116h1.237l.449.231.45.231.338.231.337.346.226.347.225.347.113.347.224.116h.337l.112-.116v-.693l-.112-.693-.112-.578-.225-.462-1.349-.231-.675-.116h-1.912l-.9.231-.788.347-.674.347-.225.231-.225.231-.337.577-.225.578-.112.347v.347l.112.577.113.578.337.462.338.462.45.462.449.347.563.347.562.231.9.462.562.231.45.346.337.347.337.231.226.347.112.347.112.347v.808l-.112.347-.225.347-.337.231-.337.231-.45.231-.45.115h-.562l-.787-.115-.562-.231-.338-.116-.224-.231-.225-.115-.225-.231-.45-.462-.337-.462-.225-.463-.225-.346-.113-.116H260.2l-.112.116v.809l.112.808.225.693.225.462.45.231.675.231,1.012.231h1.349Z" transform="translate(-103.539 -53.745)" fill="#327240" fill-rule="evenodd"/>
    <path id="Path_9" data-name="Path 9" d="M294.943,443.9v.693l-.112.462v.347l-.112.231-.225.231h-.113l-.337.116h-.337l-.45.115v.116l-.113.115.113.231H297.3l1.687.115h.675l.674-.115,1.349-.115,1.349-.231,1.124-.463.9-.462.788-.462.675-.693.225-.231.225-.347.45-.693.225-.809.112-.346.113-.347v-1.271l-.113-.462-.225-.924-.337-.809-.225-.347-.338-.347-.562-.578-.787-.578-.787-.462-.45-.231-.45-.116-1.124-.347-1.125-.115-1.237-.116h-4.273l-2.361.116-.113.115v.347h.113l.45.116.562.115.112.116.113.115.225.693V443.9Zm2.361-6.933v-1.04l.113-.232.112-.115.562-.116.45-.115h.675l1.237.115,1.124.231.563.116.45.231.45.346.337.231.45.347.337.462.225.347.225.578.225.462.113.578.112.578v1.271l-.112.462-.113.578-.113.462-.45.924-.225.347-.337.347-.338.346-.337.347-.45.231-.45.231-.562.231-.562.116h-.675l-.674.116-.675-.116-.562-.116-.45-.231-.225-.116-.112-.116-.113-.462-.112-.462-.113-.463v-6.933Z" transform="translate(-122.544 -54.056)" fill="#327240" fill-rule="evenodd"/>
    <path id="Path_10" data-name="Path 10" d="M330.987,443.9l-.112.693v.809l-.113.231-.225.231h-.225l-.225.116h-.337l-.787.115v.116l-.113.115.113.231h10.682l.337-.462.225-.693.225-.809.113-.578-.113-.116-.225-.115h-.113l-.225.115-.224.462-.337.462-.225.346-.225.116-.112.116-.45.231-.674.116-.675.116h-.9l-1.012-.116h-.675l-.449-.116-.225-.231-.113-.231-.112-.462-.112-.462v-3.235l.112-.115.112-.115h2.361l.45.115h.225l.225.115.112.115.112.231.112.231.112.693.225.115h.337l.113-.115v-3.7l-.113-.115h-.337l-.225.115-.112.578-.112.231-.112.231-.112.116-.225.115-.225.115h-2.811l-.112-.115-.112-.115V435.7l.112-.115.112-.115h.113l.562-.116H335.6l.9.116.787.115h.225l.225.115.225.116.113.231.337.462.225.693h.562l.112-.116-.225-1.387-.112-1.04h-9.558l-.112.231.112.116v.116l.337.116h.562l.225.115.112.116.113.115.113.231v.347l.112,1.155Z" transform="translate(-143.069 -54.056)" fill="#327240" fill-rule="evenodd"/>
    <path id="Path_11" data-name="Path 11" d="M370.528,437.315V436.16l.112-.347.113-.231.112-.115.225-.116.562-.115.45-.116h.112v-.347l-.112-.116h-5.735l-.112.116V435l.112.116.562.116.562.115.225.116h.112v.115l.112.231.112.347v8.9l-.112.347-.112.231-.112.116-.225.116-.225.116h-.337l-.674.115v.116l-.113.115.113.115.112.116h10.12l.225-.462.225-.693.45-1.387-.338-.116-.112-.115-.225.115-.675,1.04-.225.347-.337.231-.45.231h-.45l-1.462.116-1.012-.116h-.675l-.337-.116-.225-.231-.225-.231-.112-.462v-7.395Z" transform="translate(-164.506 -54.056)" fill="#327240" fill-rule="evenodd"/>
    <path id="Path_12" data-name="Path 12" d="M399.18,441.856h.562l.225.231.113.231,1.012,2.426.113.462v.347h-.113l-.113.116h-.45l-.45.115-.113.116v.231l.113.115h5.285l.112-.115V445.9l-.112-.116-.337-.115-.675-.116-.225-.116-.113-.116-.338-.347-.337-.808-2.923-7.511-1.012-2.426-.112-.116h-.225l-.449.346-.45.346-.562.116v.231l-.113.347-.225.693-2.923,6.471-.563,1.271-.449.924-.225.347-.225.231-.338.116-.337.116-.675.115v.462h4.386l.112-.231V445.9l-.112-.116-.563-.115h-.337l-.112-.116h-.225v-.462l.225-.578.787-2.2.113-.231.113-.231h3.261Zm-2.362-.808h-.337l-.112-.115v-.116l.112-.346.787-2.08.675-1.386.225.346.337,1.04.9,2.2.112.23v.116l-.224.115h-2.474Z" transform="translate(-179.102 -53.745)" fill="#327240" fill-rule="evenodd"/>
    <path id="Path_13" data-name="Path 13" d="M433.8,443.9v.693l-.112.462v.347l-.112.231-.225.231-.112.116-.675.115h-.337v.116l-.112.115.112.231h5.96v-.346l-.112-.116-.787-.115h-.224l-.337-.116H436.5l-.112-.231-.112-.231-.112-.347V435.7l.112-.231.112-.116h1.574l.225.116.338.115.224.115.226.116.224.116.225.231.225.231.112.231.225.462.225.462v1.04l-.112.578-.225.462-.225.347-.338.347-.45.347-.562.231-.675.115v.347l.113.116h1.124l.787-.116.787-.231.787-.346.563-.463.337-.231.225-.346.224-.347.226-.462v-.462l.112-.462-.112-.347V437.2l-.226-.346-.112-.347-.337-.346-.225-.347-.45-.231-.337-.231L440.32,435l-1.012-.231-1.124-.116h-4.948l-1.124.116-.113.115v.231l.113.116.787.115h.225l.224.116.225.115.112.231v.578l.112.924Z" transform="translate(-202.364 -54.056)" fill="#327240" fill-rule="evenodd"/>
    <path id="Path_14" data-name="Path 14" d="M459.747,441.856h.562l.225.231.113.231,1.012,2.426.112.462v.347h-.112l-.113.116h-.45l-.45.115-.113.116v.231l.113.115h5.285l.113-.115V445.9l-.113-.116-.337-.115-.675-.116-.224-.116-.112-.116-.338-.347-.337-.808-2.924-7.511-1.012-2.426-.112-.116h-.225l-.45.346-.45.346-.562.116v.578l-.337.693-2.923,6.471-.562,1.271-.45.924-.225.347-.225.231-.225.116-.45.116-.562.115-.112.116v.346h4.5V445.9l-.112-.116-.562-.115h-.337l-.113-.116h-.112l-.113-.116v-.346l.225-.578.787-2.2.112-.231.112-.231h3.261Zm-2.361-.808h-.338l-.112-.115v-.116l.112-.346.9-2.08L458.51,437l.224.346.45,1.04.787,2.2.112.23v.116l-.225.115h-2.473Z" transform="translate(-213.919 -53.745)" fill="#327240" fill-rule="evenodd"/>
    <path id="Path_15" data-name="Path 15" d="M489.361,434.033h-1.686l-.226-.115-.112-.115-.112-.116-.112-.115h-.337l-.45,1.5-.45,1.5.112.116.225.115h.112l.225-.115.338-.693.337-.346.224-.232.563-.347.675-.115.787-.116,1.124-.115h2.474l.562.115h.225l-.112.231-.337.462-1.012,1.386-4.611,6.009-.675.924-.675.809-1.012,1.04v.116l.112.115h11.47l.225-.462.337-.693.225-.809.225-.924-.113-.115-.225-.115h-.225l-.112.115-.338.578-.337.578-.45.462-.449.231-.562.231-.675.116h-1.012l-1.349.116-2.362-.116h-.45l-.224-.116v-.116l.224-.347.45-.693,1.012-1.271,3.374-4.39,1.8-2.427.787-.924.562-.578v-.231h-7.984Z" transform="translate(-233.076 -53.432)" fill="#327240" fill-rule="evenodd"/>
    <path id="Path_16" data-name="Path 16" d="M222.609,375.748v1.386h48.465l.113-.231.112-.232.112-.231v-.809l-.225-.231-2.249-.116-1.8-.116-.787-.116-.45-.116h-.225l-.562-.116-.337-.231-.225-.231-.337-.347-.225-.462-.113-.231-.112-.232-.338-.115-.562-.116H262.3l-.787-.116-.9-.115-.787-.231-.674-.231-.562.116h-3.373l-1.012-.116-1.012-.115h-.45l-.225-.116-.225-.115-.112-.231-.113-.231-.337-2.08-.337-3v-1.04l.113-.115V365l1.349.809.337.115.225.116h.562l.675-.116,1.124-.347.787-.231,1.124-.347h.45l.562.116.787.115,1.237.232.562.115h1.125l.337-.231.225-.347.225-.231-.225-1.156.112-.346.112-.231.113-.115h.112l1.687-.116,1.575-.116.224.693-.224.809.112.578.787-.231,1.912-.231,4.723,1.386V364.54l-.113-.346v-.231L274,363.5l.112-.347.113-.231.112-.231.113-.115.337-.116.562-.231,3.486.116,1.912-.116.113-.231.562-.462.225-.231.337-.231.337-.116h.225l.225-.116.112-.116.112-.116v-.231l-.112-.116-.337-.231-1.574-2.2-.787-.347-1.124-.347-.225-.116-.113-.231v-.116l.113-.231v-.116l.112-.116,1.237-.347.9-.231.675-.116h.9v-.346l-.225-.347-.45-.462-4.273-.347-3.486-.232-1.462-.231-1.012-.115-.45-1.04-.112-.116-.113-.115-.45-.231-.562-.347-.787-.578-.787-.924-1.012-.925-.562-.578-.562-.346-.675-.346-.337-.116H265v.116l-.224.115h-.225l-.45-.115-.562-.116-.9-.346-1.125-.578-1.124-.462-.9-.347-.9-.231-2.249-.231-.337-.115-.337-.116-.112-.231v-.116l-.113-.231v-.347l.113-.116v-.693l-.225-.231-.337-.347-.562-.231h-.337l-1.125-.231-.675-.231-.787-.347-.9-.462-.45-.347-.45-.347-.112-.116-.562-.116h-1.687l-1.012.231-.112.231-.225.231-.337.347-.562.231-.9.231-1.012.116h-1.462l-1.912.231-1.574.231-.787.116-.562.116-.787.231V344.9l-.112.116-.112.116-.112.115-.338.231-.337.231.112.347.112.116v.231l-.112.231-.225.116-.562.116-1.574.347-2.136.462v1.5h-3.374l-.562.116-.225.116-.113.115v.116l-.112.347.112.809v2.889l-.112.115-.675-.115-.337-.115-.562-1.04v-.231l-.112-.347-.225-.116h-.225l-.225.116-.45.347-.45.694-.337.231-.225.231-.337.231-.337.115-.112.232-.113.115-.112.116v.231l.112.116.337.116h.45l.225.347.337.809.112.462v.462l-.112.462-.112.231-.112.116-.45.578-.225.347-.225.116H221.6l-1.012.116-.675.578-1.574.115-.112.578-.113.578-.225.231-.112.116-.337.116-.45.231-1.124.231-.45.116-.45.115-.112.116-.113.115-.112.116v.231l.225.462.787-.116h1.237l.45.116.113.116v.462l1.462-.347.225-.115.225-.116h.675l.225.116.113.115.112.116.112.231.113.347.112.347-.45.346h-2.249l-1.237.115-1.125.116-1.012.231L214.4,365l-.113.116-.113.231-.112.231v.347l.112.116.113.116.225.231.562.115H217.1l1.349-.115,1.237-.231,1.237-.116,1.462-.116,1.462-.115h1.8l2.136.115.338.347.112.809.225.462,2.586.347,1.012.116,1.237.115h1.124l1.012-.115,1.8-.231,1.237-.231.9-.116.337-.116.112-.116.225-.231.112-.115v-.232l-.112-.115-.113-.115-.45-.694,1.8.116v.578l.225.115,1.462.115H245.1l.675.232.337.115.113.116v.231l.337.924.225.809v.693l-4.273,2.889h-1.349l-2.362,1.849-.337.231-.225.116h-.675l-.45-.231-.675-.231h-2.586l-.337.346-.675.462-.562.116-1.237.116-3.486.115Z" transform="translate(-77.084 0)" fill="#327240" fill-rule="evenodd"/>
  </g>
</svg>
