<svg id="Componente_5_1" data-name="Componente 5 – 1" xmlns="http://www.w3.org/2000/svg" width="299.703" height="406.579" viewBox="0 0 299.703 406.579">
  <g id="back" transform="translate(-49 -25.062)">
    <circle id="Elipse_3" data-name="Elipse 3" cx="149.851" cy="149.851" r="149.851" transform="translate(49 98)" fill="#8ac13f" opacity="0.03"/>
    <circle id="Elipse_2" data-name="Elipse 2" cx="118.539" cy="118.539" r="118.539" transform="translate(80.312 129.312)" fill="#862221" opacity="0.06"/>
    <circle id="Elipse_1" data-name="Elipse 1" cx="76.79" cy="76.79" r="76.79" transform="translate(122.062 171.062)" fill="#df9a01"/>
  </g>
  <circle id="Ellipse_4" data-name="Ellipse 4" cx="7.29" cy="7.29" r="7.29" transform="translate(47.062)" fill="#df9a01" opacity="0.51"/>
  <circle id="Elipse_17" data-name="Elipse 17" cx="3.79" cy="3.79" r="3.79" transform="translate(14.062 253)" fill="#df9a01"/>
  <circle id="Ellipse_6" data-name="Ellipse 6" cx="3.29" cy="3.29" r="3.29" transform="translate(58.062 400)" fill="#df9a01"/>
  <circle id="Ellipse_10" data-name="Ellipse 10" cx="3.29" cy="3.29" r="3.29" transform="translate(40.062 70)" fill="#df9a01"/>
  <circle id="Elipse_13" data-name="Elipse 13" cx="3.29" cy="3.29" r="3.29" transform="translate(259.062 110)" fill="#df9a01" opacity="0.61"/>
  <circle id="Ellipse_7" data-name="Ellipse 7" cx="3.29" cy="3.29" r="3.29" transform="translate(249.062 366)" fill="#df9a01"/>
  <circle id="Ellipse_5" data-name="Ellipse 5" cx="2.79" cy="2.79" r="2.79" transform="translate(195.062 45)" fill="#df9a01"/>
  <text id="Done" transform="translate(135 145.938)" fill="#060606" font-size="21" font-family="Helvetica" opacity="0"><tspan x="0" y="0">Done</tspan></text>
  <path id="Icon_ionic-ios-close" data-name="Icon ionic-ios-close" d="M47.606,40.644,68.581,19.669a4.915,4.915,0,1,0-6.951-6.951L40.656,33.693,19.681,12.719a4.915,4.915,0,1,0-6.951,6.951L33.705,40.644,12.731,61.619a4.915,4.915,0,0,0,6.951,6.951L40.656,47.595,61.63,68.569a4.915,4.915,0,0,0,6.951-6.951Z" transform="translate(109.715 182.763)" fill="#f8fbe4"/>
</svg>
