<svg xmlns="http://www.w3.org/2000/svg" width="49.892" height="40" viewBox="0 0 49.892 40">
  <g id="chat" transform="translate(0 -50.758)">
    <g id="Group_1897" data-name="Group 1897" transform="translate(0 50.758)">
      <g id="Group_1896" data-name="Group 1896" transform="translate(0 0)">
        <path id="Path_4558" data-name="Path 4558" d="M36.278,50.758H2.809A2.813,2.813,0,0,0,0,53.567V73.647a2.813,2.813,0,0,0,2.809,2.809H4.98v7.475a1.177,1.177,0,0,0,2.009.832L15.3,76.456h1.667a1.177,1.177,0,0,0,0-2.354s-2.211,0-2.234,0a1.172,1.172,0,0,0-.752.341L7.334,81.09s0-5.885-.006-5.915A1.177,1.177,0,0,0,6.156,74.1H2.809a.456.456,0,0,1-.455-.455V53.567a.456.456,0,0,1,.455-.455H36.278a.456.456,0,0,1,.455.455v7.7a1.177,1.177,0,1,0,2.354,0v-7.7A2.813,2.813,0,0,0,36.278,50.758Z" transform="translate(0 -50.758)" fill="#fff"/>
      </g>
    </g>
    <g id="Group_1899" data-name="Group 1899" transform="translate(20.846 65.154)">
      <g id="Group_1898" data-name="Group 1898" transform="translate(0 0)">
        <path id="Path_4559" data-name="Path 4559" d="M240.16,198.492H216.732a2.813,2.813,0,0,0-2.809,2.809V215a2.813,2.813,0,0,0,2.809,2.809H231.4l5.942,5.942a1.177,1.177,0,0,0,2.009-.832v-5.11h.809A2.813,2.813,0,0,0,242.969,215V201.3A2.812,2.812,0,0,0,240.16,198.492ZM240.616,215a.456.456,0,0,1-.455.455h-1.986A1.176,1.176,0,0,0,237,216.541c0,.026-.005,3.536-.005,3.536l-4.273-4.274-.013-.013c-.017-.016-.033-.03-.048-.043a1.172,1.172,0,0,0-.775-.293H216.732a.456.456,0,0,1-.455-.455V201.3a.456.456,0,0,1,.455-.455H240.16a.456.456,0,0,1,.455.455Z" transform="translate(-213.923 -198.492)" fill="#fff"/>
      </g>
    </g>
    <g id="Group_1901" data-name="Group 1901" transform="translate(34.192 73.636)">
      <g id="Group_1900" data-name="Group 1900" transform="translate(0 0)">
        <path id="Path_4560" data-name="Path 4560" d="M352.063,285.53a1.177,1.177,0,1,0,1.177,1.177A1.177,1.177,0,0,0,352.063,285.53Z" transform="translate(-350.886 -285.53)" fill="#fff"/>
      </g>
    </g>
    <g id="Group_1903" data-name="Group 1903" transform="translate(7.657 58.539)">
      <g id="Group_1902" data-name="Group 1902" transform="translate(0 0)">
        <path id="Path_4561" data-name="Path 4561" d="M101.17,130.611H79.749a1.177,1.177,0,1,0,0,2.354H101.17a1.177,1.177,0,1,0,0-2.354Z" transform="translate(-78.572 -130.611)" fill="#fff"/>
      </g>
    </g>
    <g id="Group_1905" data-name="Group 1905" transform="translate(7.657 66.321)">
      <g id="Group_1904" data-name="Group 1904" transform="translate(0 0)">
        <path id="Path_4562" data-name="Path 4562" d="M87.878,210.465H79.749a1.177,1.177,0,1,0,0,2.354h8.129a1.177,1.177,0,0,0,0-2.354Z" transform="translate(-78.572 -210.465)" fill="#fff"/>
      </g>
    </g>
    <g id="Group_1907" data-name="Group 1907" transform="translate(28.723 73.636)">
      <g id="Group_1906" data-name="Group 1906" transform="translate(0 0)">
        <path id="Path_4563" data-name="Path 4563" d="M295.936,285.53a1.177,1.177,0,1,0,1.177,1.177A1.177,1.177,0,0,0,295.936,285.53Z" transform="translate(-294.759 -285.53)" fill="#fff"/>
      </g>
    </g>
    <g id="Group_1909" data-name="Group 1909" transform="translate(39.661 73.636)">
      <g id="Group_1908" data-name="Group 1908" transform="translate(0 0)">
        <path id="Path_4564" data-name="Path 4564" d="M408.178,285.53a1.177,1.177,0,1,0,1.177,1.177A1.177,1.177,0,0,0,408.178,285.53Z" transform="translate(-407.001 -285.53)" fill="#fff"/>
      </g>
    </g>
  </g>
</svg>
