<svg id="lupa_1_" data-name="lupa (1)" xmlns="http://www.w3.org/2000/svg" width="25" height="25" viewBox="0 0 25 25">
  <g id="Group_2014" data-name="Group 2014">
    <path id="Path_4611" data-name="Path 4611" d="M2.967,17.312A10.144,10.144,0,0,1,17.313,2.966a9.947,9.947,0,0,1,1.526,12.243.427.427,0,0,0,.059.508l5.175,5.175c1.03,1.03,1.275,2.47.362,3.384l-.157.157c-.914.914-2.354.669-3.384-.362l-5.165-5.165a.433.433,0,0,0-.519-.07A9.947,9.947,0,0,1,2.967,17.312ZM15.44,15.439a7.5,7.5,0,1,0-10.6,0A7.5,7.5,0,0,0,15.44,15.439Z" transform="translate(-0.001 0)" fill="#848484"/>
  </g>
</svg>
