<svg xmlns="http://www.w3.org/2000/svg" width="68.931" height="60.825" viewBox="0 0 68.931 60.825">
  <g id="computer" transform="translate(0 -30.107)">
    <path id="Path_4616" data-name="Path 4616" d="M63.873,30.107H41.826a1.012,1.012,0,1,0,0,2.024H63.873a3.039,3.039,0,0,1,3.035,3.035V70.575H62.057V39.5a3.039,3.039,0,0,0-3.035-3.035H9.909A3.039,3.039,0,0,0,6.874,39.5V70.575H2.023V35.166a3.039,3.039,0,0,1,3.035-3.035H37.779a1.012,1.012,0,1,0,0-2.024H5.058A5.064,5.064,0,0,0,0,35.166V76.073a5.064,5.064,0,0,0,5.059,5.059H27.3l-1.02,7.776H22.689a1.012,1.012,0,0,0,0,2.024H46.242a1.012,1.012,0,0,0,0-2.024H42.647l-1.02-7.776H52.348a1.012,1.012,0,0,0,0-2.024H5.058a3.039,3.039,0,0,1-3.035-3.035V72.6H66.908v3.475a3.039,3.039,0,0,1-3.035,3.035H56.395a1.012,1.012,0,1,0,0,2.024h7.478a5.064,5.064,0,0,0,5.059-5.059V35.166a5.064,5.064,0,0,0-5.058-5.059Zm-23.266,58.8H28.325l1.02-7.776H39.587ZM8.9,39.5a1.013,1.013,0,0,1,1.012-1.012H59.022A1.013,1.013,0,0,1,60.034,39.5v4.979H8.9Zm0,7H60.034V70.575H55.115v-4.51A1.012,1.012,0,0,0,54.1,65.053H36.888a1.012,1.012,0,0,0-1.012,1.012v4.51h-2.82v-4.51a1.012,1.012,0,0,0-1.012-1.012H14.828a1.012,1.012,0,0,0-1.012,1.012v4.51H8.9ZM53.092,70.575H37.9v-3.5H53.092Zm-22.06,0H15.84v-3.5H31.032Z" fill="#32a1b2"/>
    <path id="Path_4617" data-name="Path 4617" d="M84.76,102.455a1.554,1.554,0,1,0,1.554,1.554A1.556,1.556,0,0,0,84.76,102.455Z" transform="translate(-72.004 -62.608)" fill="#32a1b2"/>
    <path id="Path_4618" data-name="Path 4618" d="M121.8,102.455a1.554,1.554,0,1,0,1.554,1.554A1.556,1.556,0,0,0,121.8,102.455Z" transform="translate(-104.06 -62.608)" fill="#32a1b2"/>
    <path id="Path_4619" data-name="Path 4619" d="M158.845,102.455a1.554,1.554,0,1,0,1.554,1.554A1.556,1.556,0,0,0,158.845,102.455Z" transform="translate(-136.115 -62.608)" fill="#32a1b2"/>
    <path id="Path_4620" data-name="Path 4620" d="M103.633,188.259h7.36a1.012,1.012,0,1,0,0-2.023h-6.349v-8.877h37.25v8.877H115.04a1.012,1.012,0,1,0,0,2.023h27.867a1.012,1.012,0,0,0,1.012-1.012v-10.9a1.012,1.012,0,0,0-1.012-1.012H103.633a1.012,1.012,0,0,0-1.012,1.012v10.9A1.012,1.012,0,0,0,103.633,188.259Z" transform="translate(-88.805 -125.676)" fill="#32a1b2"/>
  </g>
</svg>
