<svg xmlns="http://www.w3.org/2000/svg" width="169.697" height="50" viewBox="0 0 169.697 50">
  <g id="Group_2126" data-name="Group 2126" transform="translate(-133.432 -624.669)">
    <g id="Group_2124" data-name="Group 2124" transform="translate(138.053 624.669)">
      <path id="Path_4621" data-name="Path 4621" d="M169.826,629.872a20.812,20.812,0,0,1,20.1-4.246c2.554.748,5.471,2.156,6.052,5.028.065,2.372-.915,4.65-1.3,6.983a14.706,14.706,0,0,0-12.2-3.308c-4.608.941-7.874,4.908-9.59,9.078-1.965,4.921-2.893,10.565-1.1,15.678a9.367,9.367,0,0,0,5.919,5.953c4.444,1.34,9.219-.339,12.53-3.422-.657,2.977-.98,6.032-1.809,8.961-.839,2.424-3.534,3.295-5.818,3.717-6.019,1.1-12.968-.135-17.219-4.838-4.168-4.551-5.124-11.047-4.921-16.995C160.784,644.195,163.568,635.57,169.826,629.872Z" transform="translate(-94.663 -624.669)" fill="#014b8e"/>
      <g id="Group_2122" data-name="Group 2122" transform="translate(27.705 0.723)">
        <path id="Path_4622" data-name="Path 4622" d="M153.08,626.139a64.028,64.028,0,0,1,13.546-1.17c4.157.229,8.628,1.11,11.709,4.129,3.67,3.5,3.777,9.712.824,13.687a12.838,12.838,0,0,1-7.358,4.84c2.3.957,4.569,2.325,5.7,4.65a14.405,14.405,0,0,1-3.326,16.625c-3.61,3.318-8.625,4.481-13.382,4.809a30.728,30.728,0,0,1-10.58-1.082,5.959,5.959,0,0,1-3.837-3.816c-.891-2.607-.54-5.437-.005-8.08C148.66,649.21,150.766,637.652,153.08,626.139Zm8.351,7.074c-.613,3.313-1.335,6.608-1.822,9.936-.159.933.97,1.327,1.715,1.191,3.018.12,6.425-.258,8.643-2.523,2.01-2.127,2.273-6.342-.534-7.916C167,632.538,164.085,633.161,161.432,633.213Zm-3.524,18.616c-.782,3.159-1.241,6.394-1.916,9.577-.222,1.368-.9,2.878.125,4.087,3.206-.01,6.67.224,9.477-1.637,3.37-1.963,4.481-7.241,1.684-10.124C164.732,651.417,161.067,651.957,157.908,651.829Z" transform="translate(-145.834 -624.946)" fill="#014b8e"/>
      </g>
      <g id="Group_2123" data-name="Group 2123" transform="translate(98.442 0.987)">
        <path id="Path_4623" data-name="Path 4623" d="M182.038,626.258a36.614,36.614,0,0,1,9.665-1.2c4.47-.065,9.243.07,13.174,2.466a11.094,11.094,0,0,1,5.213,8.482c1.04,7.551-2.713,15.689-9.5,19.335-4.468,2.554-9.749,2.7-14.75,2.367-.816,3.74-1.363,7.541-2.221,11.268a5.824,5.824,0,0,1-3.722,4.509c-2.3.219-4.621.024-6.923.089C176.136,657.839,178.92,642.012,182.038,626.258Zm8.985,7.147c-.868,4.567-1.772,9.131-2.578,13.705a1.958,1.958,0,0,0,1.168,2.195,10.591,10.591,0,0,0,7.16-1.2,10.03,10.03,0,0,0,3.881-12.214C198.727,632.535,194.281,633.116,191.022,633.405Z" transform="translate(-172.972 -625.047)" fill="#014b8e"/>
      </g>
      <path id="Path_4624" data-name="Path 4624" d="M141.63,626.67a4.07,4.07,0,0,1,4.8.9c1.822,2.771,1.911,6.219,1.822,9.42a23.023,23.023,0,0,1-1.41,7.609A34.408,34.408,0,0,0,135.2,635C136.381,631.651,138.388,628.339,141.63,626.67Z" transform="translate(-135.205 -622.138)" fill="#014b8e"/>
      <path id="Path_4625" data-name="Path 4625" d="M188.978,634.9c1.452-3.375,3.425-6.98,7.012-8.432a4.248,4.248,0,0,1,4.817,1.72c2.148,5.234,1.637,11.1-.047,16.385A38.5,38.5,0,0,0,188.978,634.9Z" transform="translate(-48.816 -622.149)" fill="#014b8e"/>
    </g>
    <g id="Group_2125" data-name="Group 2125" transform="translate(133.432 630.101)">
      <path id="Path_4626" data-name="Path 4626" d="M149.28,626.753a40.141,40.141,0,0,1,11.511,11.628,11.97,11.97,0,0,1,.334,12.9c-3.024,5.028-7.473,9.021-12.024,12.636-2.578,1.921-5.674,4.212-9.079,3.318-3.2-.811-5.164-3.675-6.589-6.441,6.824-4.006,13.476-9.332,16.26-17.013a23.023,23.023,0,0,0,1.41-7.609C151.19,632.972,151.1,629.524,149.28,626.753Z" transform="translate(-133.432 -626.753)" fill="#f57d31"/>
      <path id="Path_4627" data-name="Path 4627" d="M203.6,626.987c4.092,2.067,7.027,5.839,9.824,9.373a13.168,13.168,0,0,1,3.211,9.436c-.229,2.925-1.78,5.531-3.542,7.8a55.581,55.581,0,0,1-12.571,11.623c-1.944,1.251-4.327,2.343-6.67,1.626-3.2-.805-5.32-3.641-6.613-6.509,6.947-3.845,13.406-9.376,16.314-16.969C205.237,638.086,205.748,632.221,203.6,626.987Z" transform="translate(-46.988 -626.377)" fill="#f57d31"/>
    </g>
  </g>
</svg>
