<svg id="Page-1" xmlns="http://www.w3.org/2000/svg" width="60" height="60" viewBox="0 0 60 60">
  <g id="_003---Mobile-Payment" data-name="003---Mobile-Payment">
    <path id="Shape" d="M55,13H36V4a4,4,0,0,0-4-4H4A4,4,0,0,0,0,4V56a4,4,0,0,0,4,4H32a4,4,0,0,0,4-4V43H55a5.006,5.006,0,0,0,5-5V18A5.006,5.006,0,0,0,55,13Zm3,5V30H30a1,1,0,0,0,0,2H58v4H18V32h5a1,1,0,0,0,0-2H18V18a3,3,0,0,1,3-3H55A3,3,0,0,1,58,18ZM25.692,2,24.41,3.368A2.008,2.008,0,0,1,22.95,4h-9.9a2,2,0,0,1-1.459-.632L10.309,2ZM32,58H4a2,2,0,0,1-2-2V54.444A3.959,3.959,0,0,0,4,55H32a3.959,3.959,0,0,0,2-.556V56A2,2,0,0,1,32,58Zm2-7a2,2,0,0,1-2,2H4a2,2,0,0,1-2-2V4A2,2,0,0,1,4,2H7.567l2.565,2.735A4.011,4.011,0,0,0,13.05,6h9.9a4.02,4.02,0,0,0,2.919-1.264L28.433,2H32a2,2,0,0,1,2,2v9H21a5.006,5.006,0,0,0-5,5v2H13a1,1,0,0,0,0,2h3v5H11a1,1,0,0,0,0,2h5v5H13a1,1,0,0,0,0,2h3v2a5.006,5.006,0,0,0,5,5H34ZM55,41H21a3,3,0,0,1-3-3H58A3,3,0,0,1,55,41Z" fill="#32a1b2"/>
    <path id="Shape-2" data-name="Shape" d="M8,22H9a1,1,0,0,0,0-2H8a1,1,0,0,0,0,2Z" fill="#32a1b2"/>
    <path id="Shape-3" data-name="Shape" d="M9,34H8a1,1,0,0,0,0,2H9a1,1,0,0,0,0-2Z" fill="#32a1b2"/>
    <path id="Shape-4" data-name="Shape" d="M8,28a1,1,0,0,0-1-1H5a1,1,0,0,0,0,2H7A1,1,0,0,0,8,28Z" fill="#32a1b2"/>
    <path id="Shape-5" data-name="Shape" d="M49,23a2.981,2.981,0,0,0,2-.78,3,3,0,1,0,0-4.44A3,3,0,1,0,49,23Zm4-4a1,1,0,1,1-1,1A1,1,0,0,1,53,19Zm-4,0a1,1,0,1,1-1,1A1,1,0,0,1,49,19Z" fill="#32a1b2"/>
    <path id="Shape-6" data-name="Shape" d="M22,23h1a1,1,0,0,0,0-2H22a1,1,0,0,0,0,2Z" fill="#32a1b2"/>
    <path id="Shape-7" data-name="Shape" d="M27,23h3a1,1,0,0,0,0-2H27a1,1,0,0,0,0,2Z" fill="#32a1b2"/>
    <path id="Shape-8" data-name="Shape" d="M33,25H22a1,1,0,0,0,0,2H33a1,1,0,0,0,0-2Z" fill="#32a1b2"/>
  </g>
</svg>
