<svg id="Group_15" data-name="Group 15" xmlns="http://www.w3.org/2000/svg" width="22.5" height="30" viewBox="0 0 22.5 30">
  <g id="Group_14" data-name="Group 14">
    <path id="Path_7" data-name="Path 7" d="M214.356,281.844l-.394,3.545a.625.625,0,0,0,.621.694h2.5a.625.625,0,0,0,.621-.694l-.394-3.545a2.473,2.473,0,0,0,1.023-2.011,2.5,2.5,0,1,0-5,0A2.473,2.473,0,0,0,214.356,281.844Zm1.477-3.26a1.246,1.246,0,0,1,.54,2.371.625.625,0,0,0-.349.632l.361,3.248h-1.1l.361-3.248a.625.625,0,0,0-.349-.632,1.246,1.246,0,0,1,.539-2.371Z" transform="translate(-204.583 -261.083)" fill="#118081"/>
    <path id="Path_8" data-name="Path 8" d="M85.875,11.25H84V8.75a8.75,8.75,0,0,0-17.5,0v2.5H64.625a.625.625,0,0,0-.625.625V27.5A2.5,2.5,0,0,0,66.5,30H84a2.5,2.5,0,0,0,2.5-2.5V11.875A.625.625,0,0,0,85.875,11.25ZM67.75,8.75a7.5,7.5,0,0,1,15,0v2.5H81.5V8.75a6.25,6.25,0,1,0-12.5,0v2.5H67.75Zm12.5,0v2.5h-10V8.75a5,5,0,0,1,10,0Zm5,18.75A1.252,1.252,0,0,1,84,28.75H66.5a1.252,1.252,0,0,1-1.25-1.25v-15h20Z" transform="translate(-64)" fill="#118081"/>
  </g>
</svg>
