<svg xmlns="http://www.w3.org/2000/svg" width="30" height="19.555" viewBox="0 0 30 19.555">
  <g id="id-card" transform="translate(0 -89.13)">
    <g id="Group_5" data-name="Group 5" transform="translate(0 89.13)">
      <g id="Group_4" data-name="Group 4">
        <path id="Path_2" data-name="Path 2" d="M28.089,89.13H1.911A1.913,1.913,0,0,0,0,91.041v15.733a1.913,1.913,0,0,0,1.911,1.911H28.089A1.913,1.913,0,0,0,30,106.774V91.041A1.913,1.913,0,0,0,28.089,89.13Zm.637,17.644a.638.638,0,0,1-.637.637H1.911a.638.638,0,0,1-.637-.637V91.041a.638.638,0,0,1,.637-.637H28.089a.638.638,0,0,1,.637.637Z" transform="translate(0 -89.13)" fill="#118081"/>
      </g>
    </g>
    <g id="Group_7" data-name="Group 7" transform="translate(17.26 94.718)">
      <g id="Group_6" data-name="Group 6">
        <path id="Path_3" data-name="Path 3" d="M302.044,184.506h-6.836a.637.637,0,0,0,0,1.274h6.836a.637.637,0,0,0,0-1.274Z" transform="translate(-294.571 -184.506)" fill="#118081"/>
      </g>
    </g>
    <g id="Group_9" data-name="Group 9" transform="translate(17.26 98.271)">
      <g id="Group_8" data-name="Group 8">
        <path id="Path_4" data-name="Path 4" d="M302.044,245.129h-6.836a.637.637,0,0,0,0,1.274h6.836a.637.637,0,0,0,0-1.274Z" transform="translate(-294.571 -245.129)" fill="#118081"/>
      </g>
    </g>
    <g id="Group_11" data-name="Group 11" transform="translate(17.26 101.823)">
      <g id="Group_10" data-name="Group 10">
        <path id="Path_5" data-name="Path 5" d="M302.044,305.752h-6.836a.637.637,0,0,0,0,1.274h6.836a.637.637,0,0,0,0-1.274Z" transform="translate(-294.571 -305.752)" fill="#118081"/>
      </g>
    </g>
    <g id="Group_13" data-name="Group 13" transform="translate(3.306 91.897)">
      <g id="Group_12" data-name="Group 12">
        <path id="Path_6" data-name="Path 6" d="M64.872,145.371a1.513,1.513,0,0,1-1.494-1.214,3.652,3.652,0,0,0,1.038-1.356c.019,0,.038,0,.056,0a.573.573,0,0,0,.452-.221,3.883,3.883,0,0,0,.783-2.512,3.36,3.36,0,0,0-3.065-3.476c-.045,0-.086,0-.118,0h0a2.909,2.909,0,0,0-1.263-.242,3.155,3.155,0,0,0-2.412,1.3A4.616,4.616,0,0,0,58.019,141a4.577,4.577,0,0,0,.369,1.283.573.573,0,0,0,.487.334.565.565,0,0,0,.169-.015,3.747,3.747,0,0,0,1.125,1.551,1.517,1.517,0,0,1-1.494,1.217,2.34,2.34,0,0,0-2.26,2.336v2.321a.573.573,0,0,0,.573.573h9.571a.573.573,0,0,0,.573-.573v-2.321A2.34,2.34,0,0,0,64.872,145.371Zm-5.71-4.477-.008-.053a3.35,3.35,0,0,1-.032-.377,3.285,3.285,0,0,1,.635-2.108A2.031,2.031,0,0,1,61.3,137.5a1.627,1.627,0,0,1,.863.191.514.514,0,0,0,.273.06l.192-.009a2.257,2.257,0,0,1,1.938,2.367,3.051,3.051,0,0,1-.017.439,3.4,3.4,0,0,0-1.614-1.437.573.573,0,0,0-.76.33,2.468,2.468,0,0,1-.16.347.871.871,0,0,1-.8.417c-.069,0-.138,0-.206,0a3.068,3.068,0,0,0-.976.191A3.1,3.1,0,0,0,59.162,140.893Zm.8.832a2.3,2.3,0,0,1,.467-.256,2.015,2.015,0,0,1,.74-.119,2.017,2.017,0,0,0,1.788-.909,2.391,2.391,0,0,1,.7.884c-.178,1.287-.978,2.265-1.887,2.265C60.961,143.59,60.234,142.823,59.961,141.725Zm1.26,2.947a2.4,2.4,0,0,0,.551.065,2.438,2.438,0,0,0,.554-.064,2.637,2.637,0,0,0,1.081,1.421,1.739,1.739,0,0,1-3.268,0A2.638,2.638,0,0,0,61.221,144.672Zm-3.659,4.782v-1.748a1.192,1.192,0,0,1,1.191-1.191c.013,0,.222-.012.312-.024a2.885,2.885,0,0,0,5.418,0c.09.012.3.024.312.024a1.192,1.192,0,0,1,1.191,1.191v1.748Z" transform="translate(-56.415 -136.354)" fill="#118081"/>
      </g>
    </g>
  </g>
</svg>
