<svg xmlns="http://www.w3.org/2000/svg" width="19" height="30" viewBox="0 0 19 30">
  <g id="mobile" transform="translate(-88)">
    <g id="Group_22" data-name="Group 22" transform="translate(88)">
      <g id="Group_21" data-name="Group 21" transform="translate(0)">
        <path id="Path_9" data-name="Path 9" d="M104.5,0h-14A2.5,2.5,0,0,0,88,2.5v25A2.5,2.5,0,0,0,90.5,30h14a2.5,2.5,0,0,0,2.5-2.5V2.5A2.5,2.5,0,0,0,104.5,0ZM106,27.5a1.5,1.5,0,0,1-1.5,1.5h-14A1.5,1.5,0,0,1,89,27.5V27h17Zm0-1.5H89V4h17Zm0-23H89V2.5A1.5,1.5,0,0,1,90.5,1h14A1.5,1.5,0,0,1,106,2.5Z" transform="translate(-88)" fill="#118081"/>
      </g>
    </g>
    <g id="Group_24" data-name="Group 24" transform="translate(95 1.5)">
      <g id="Group_23" data-name="Group 23" transform="translate(0)">
        <path id="Path_10" data-name="Path 10" d="M201.5,24h-1a.5.5,0,1,0,0,1h1a.5.5,0,1,0,0-1Z" transform="translate(-200 -24)" fill="#118081"/>
      </g>
    </g>
    <g id="Group_26" data-name="Group 26" transform="translate(97.5 1.5)">
      <g id="Group_25" data-name="Group 25">
        <path id="Path_11" data-name="Path 11" d="M242.5,24h-2a.5.5,0,1,0,0,1h2a.5.5,0,0,0,0-1Z" transform="translate(-240 -24)" fill="#118081"/>
      </g>
    </g>
    <g id="Group_28" data-name="Group 28" transform="translate(95.5 27.5)">
      <g id="Group_27" data-name="Group 27" transform="translate(0)">
        <path id="Path_12" data-name="Path 12" d="M211.5,440h-3a.5.5,0,0,0,0,1h3a.5.5,0,0,0,0-1Z" transform="translate(-208 -440)" fill="#118081"/>
      </g>
    </g>
  </g>
</svg>
