<svg xmlns="http://www.w3.org/2000/svg" width="17.6" height="22" viewBox="0 0 17.6 22">
  <g id="placeholder" transform="translate(-76)">
    <path id="Path_4667" data-name="Path 4667" d="M84.8,0C79.945,0,76,3.468,76,7.734a6.96,6.96,0,0,0,1.32,4.061L84.2,21.7a.7.7,0,0,0,.5.3.769.769,0,0,0,.748-.309l6.9-9.991A6.947,6.947,0,0,0,93.6,7.734C93.6,3.468,89.655,0,84.8,0Zm0,11.6a4.153,4.153,0,0,1-4.4-3.867,4.437,4.437,0,0,1,8.8,0A4.142,4.142,0,0,1,84.8,11.6Z" fill="#fff"/>
    <path id="Path_4668" data-name="Path 4668" d="M256,0V3.867a4.172,4.172,0,0,1,4.4,3.867A4.142,4.142,0,0,1,256,11.6V22a.754.754,0,0,0,.65-.317l6.9-9.991A6.947,6.947,0,0,0,264.8,7.734C264.8,3.468,260.855,0,256,0Z" transform="translate(-171.2)" fill="#fff"/>
  </g>
</svg>
