<svg xmlns="http://www.w3.org/2000/svg" width="29.673" height="24" viewBox="0 0 29.673 24">
  <g id="open-book" transform="translate(0 -28.39)">
    <g id="Group_1937" data-name="Group 1937" transform="translate(0 28.39)">
      <path id="Path_4572" data-name="Path 4572" d="M28.677,31.635H26.6V29.482a1,1,0,0,0-.848-.985,15.289,15.289,0,0,0-4.552.137,10.223,10.223,0,0,0-6.361,3.561,10.223,10.223,0,0,0-6.361-3.561A15.293,15.293,0,0,0,3.924,28.5a1,1,0,0,0-.848.985v2.153H1a1,1,0,0,0-1,1V51.394a1,1,0,0,0,1.323.94c.075-.026,7.536-2.572,13.1-.034a1,1,0,0,0,.827,0c5.548-2.531,13.026.009,13.1.034a1,1,0,0,0,1.323-.94V32.631A1,1,0,0,0,28.677,31.635ZM1.991,50.062V33.626H3.076v13.26a1,1,0,0,0,1.142.985c.055-.008,4.381-.6,7.541,1.566A24.243,24.243,0,0,0,1.991,50.062ZM13.841,48.54a10.729,10.729,0,0,0-5.365-2.5A15.626,15.626,0,0,0,5.7,45.795c-.229,0-.441,0-.633.013V30.4h0c1.914-.086,6.569.118,8.774,3.855Zm1.991-14.289c2.2-3.721,6.859-3.935,8.774-3.853V45.807a15.785,15.785,0,0,0-3.408.232,10.728,10.728,0,0,0-5.365,2.5V34.251Zm2.079,15.187c3.161-2.17,7.489-1.575,7.543-1.567a1,1,0,0,0,1.143-.985V33.627h1.084V50.062A24.237,24.237,0,0,0,17.911,49.439Z" transform="translate(0 -28.39)" fill="#fff"/>
    </g>
  </g>
</svg>
