<svg xmlns="http://www.w3.org/2000/svg" width="29.992" height="28" viewBox="0 0 29.992 28">
  <g id="newspaper_1_" data-name="newspaper (1)" transform="translate(0 -17)">
    <path id="Path_4595" data-name="Path 4595" d="M29.113,23.092H22.435V17.879A.879.879,0,0,0,21.556,17H.879A.879.879,0,0,0,0,17.879V40.607A4.4,4.4,0,0,0,4.393,45H25.6a4.4,4.4,0,0,0,4.393-4.393V23.971A.879.879,0,0,0,29.113,23.092ZM4.393,43.243a2.639,2.639,0,0,1-2.636-2.636V18.757H20.678c0,23.224-.011,21.933.02,22.264a4.379,4.379,0,0,0,.861,2.221Zm23.841-2.636A2.639,2.639,0,0,1,25.6,43.243h-.527a2.639,2.639,0,0,1-2.636-2.636V24.849h5.8Z" fill="#fff"/>
    <path id="Path_4596" data-name="Path 4596" d="M79,89H65.879a.879.879,0,0,0,0,1.757H79A.879.879,0,0,0,79,89Z" transform="translate(-61.192 -67.782)" fill="#fff"/>
    <path id="Path_4597" data-name="Path 4597" d="M79,153H65.879a.879.879,0,0,0,0,1.757H79A.879.879,0,0,0,79,153Z" transform="translate(-61.192 -128.033)" fill="#fff"/>
    <path id="Path_4598" data-name="Path 4598" d="M79,393H65.879a.879.879,0,0,0,0,1.757H79A.879.879,0,0,0,79,393Z" transform="translate(-61.192 -353.975)" fill="#fff"/>
    <path id="Path_4599" data-name="Path 4599" d="M184.439,217h-6.561a.879.879,0,0,0-.879.879v6.561a.879.879,0,0,0,.879.879h6.561a.879.879,0,0,0,.879-.879v-6.561A.879.879,0,0,0,184.439,217Zm-.879,6.561h-4.8v-4.8h4.8Z" transform="translate(-166.632 -188.285)" fill="#fff"/>
    <path id="Path_4600" data-name="Path 4600" d="M65.879,242.757H68.69a.879.879,0,1,0,0-1.757H65.879a.879.879,0,0,0,0,1.757Z" transform="translate(-61.192 -210.879)" fill="#fff"/>
    <path id="Path_4601" data-name="Path 4601" d="M65.879,306.757H68.69a.879.879,0,1,0,0-1.757H65.879a.879.879,0,0,0,0,1.757Z" transform="translate(-61.192 -271.13)" fill="#fff"/>
  </g>
</svg>
