<svg xmlns="http://www.w3.org/2000/svg" width="32" height="22" viewBox="0 0 32 22">
  <g id="tarjeta-de-credito" transform="translate(0 -80)">
    <path id="Path_4569" data-name="Path 4569" d="M28.5,80H3.5A3.5,3.5,0,0,0,0,83.5v15A3.5,3.5,0,0,0,3.5,102h25A3.5,3.5,0,0,0,32,98.5v-15A3.5,3.5,0,0,0,28.5,80Zm-25,2h25A1.5,1.5,0,0,1,30,83.5v2H2v-2A1.5,1.5,0,0,1,3.5,82Zm25,18H3.5A1.5,1.5,0,0,1,2,98.5v-11H30v11A1.5,1.5,0,0,1,28.5,100Z" transform="translate(0 0)" fill="#fff"/>
    <path id="Path_4570" data-name="Path 4570" d="M82,307H81a1,1,0,0,1-1-1v-1a1,1,0,0,1,1-1h1a1,1,0,0,1,1,1v1A1,1,0,0,1,82,307Z" transform="translate(-75 -210)" fill="#fff"/>
  </g>
</svg>
