<svg xmlns="http://www.w3.org/2000/svg" width="31.291" height="26" viewBox="0 0 31.291 26">
  <g id="document" transform="translate(0 -19.652)">
    <g id="Group_1951" data-name="Group 1951" transform="translate(4.317 19.652)">
      <g id="Group_1950" data-name="Group 1950" transform="translate(0 0)">
        <path id="Path_4579" data-name="Path 4579" d="M74.34,19.652A3.4,3.4,0,0,0,70.77,22.83l-.13,16.476,1.948.013.13-16.483A1.538,1.538,0,0,1,74.34,21.4H93.913V19.652Z" transform="translate(-70.64 -19.652)" fill="#fff"/>
      </g>
    </g>
    <g id="Group_1953" data-name="Group 1953" transform="translate(0 19.652)">
      <g id="Group_1952" data-name="Group 1952" transform="translate(0 0)">
        <path id="Path_4580" data-name="Path 4580" d="M27.591,19.652a3.534,3.534,0,0,0-3.7,3.33V41.474A2.573,2.573,0,0,1,21.2,43.9,2.573,2.573,0,0,1,18.5,41.474V39.342a.929.929,0,0,0-.974-.876H.974A.929.929,0,0,0,0,39.342v2.133a4.433,4.433,0,0,0,4.642,4.178V43.9a2.573,2.573,0,0,1-2.694-2.425V40.218H16.554v1.256A4.433,4.433,0,0,0,21.2,45.652a4.433,4.433,0,0,0,4.642-4.178v-13.7h4.479a.929.929,0,0,0,.974-.876V22.982A3.534,3.534,0,0,0,27.591,19.652Zm1.753,6.369H25.838V22.982a1.763,1.763,0,0,1,3.506,0v3.038Z" transform="translate(0 -19.652)" fill="#fff"/>
      </g>
    </g>
    <g id="Group_1955" data-name="Group 1955" transform="translate(4.447 43.899)">
      <g id="Group_1954" data-name="Group 1954" transform="translate(0 0)">
        <rect id="Rectangle_1328" data-name="Rectangle 1328" width="16.522" height="1.753" fill="#fff"/>
      </g>
    </g>
    <g id="Group_1957" data-name="Group 1957" transform="translate(8.472 24.531)">
      <g id="Group_1956" data-name="Group 1956" transform="translate(0 0)">
        <path id="Path_4581" data-name="Path 4581" d="M144.627,108.349H139.6a.881.881,0,1,0,0,1.753h5.031a.881.881,0,1,0,0-1.753Z" transform="translate(-138.622 -108.349)" fill="#fff"/>
      </g>
    </g>
    <g id="Group_1959" data-name="Group 1959" transform="translate(8.472 28.036)">
      <g id="Group_1958" data-name="Group 1958">
        <path id="Path_4582" data-name="Path 4582" d="M150.47,172.083H139.6a.881.881,0,1,0,0,1.753H150.47a.881.881,0,1,0,0-1.753Z" transform="translate(-138.622 -172.083)" fill="#fff"/>
      </g>
    </g>
    <g id="Group_1961" data-name="Group 1961" transform="translate(8.472 31.542)">
      <g id="Group_1960" data-name="Group 1960">
        <path id="Path_4583" data-name="Path 4583" d="M150.47,235.817H139.6a.881.881,0,1,0,0,1.753H150.47a.881.881,0,1,0,0-1.753Z" transform="translate(-138.622 -235.817)" fill="#fff"/>
      </g>
    </g>
    <g id="Group_1963" data-name="Group 1963" transform="translate(8.472 35.047)">
      <g id="Group_1962" data-name="Group 1962">
        <path id="Path_4584" data-name="Path 4584" d="M150.47,299.552H139.6a.881.881,0,1,0,0,1.753H150.47a.881.881,0,1,0,0-1.753Z" transform="translate(-138.622 -299.552)" fill="#fff"/>
      </g>
    </g>
  </g>
</svg>
