<svg xmlns="http://www.w3.org/2000/svg" width="26.955" height="28" viewBox="0 0 26.955 28">
  <g id="factura" transform="translate(-60.267)">
    <g id="Group_1931" data-name="Group 1931" transform="translate(70.067 4.393)">
      <g id="Group_1930" data-name="Group 1930" transform="translate(0)">
        <path id="Path_4566" data-name="Path 4566" d="M201.9,85.606h-1.172a.937.937,0,0,1,0-1.874h2.343a.82.82,0,0,0,0-1.641h-.937v-.937a.82.82,0,0,0-1.641,0V82.1a2.577,2.577,0,0,0,.235,5.144H201.9a.937.937,0,1,1,0,1.874h-2.343a.82.82,0,0,0,0,1.641h.937V91.7a.82.82,0,0,0,1.641,0V90.75a2.577,2.577,0,0,0-.234-5.144Z" transform="translate(-198.155 -80.334)" fill="#fff"/>
      </g>
    </g>
    <g id="Group_1933" data-name="Group 1933" transform="translate(68.667 19.33)">
      <g id="Group_1932" data-name="Group 1932" transform="translate(0)">
        <path id="Path_4567" data-name="Path 4567" d="M170.273,353.467h-8.786a.82.82,0,0,0,0,1.641h8.786a.82.82,0,0,0,0-1.641Z" transform="translate(-160.667 -353.467)" fill="#fff"/>
      </g>
    </g>
    <g id="Group_1935" data-name="Group 1935" transform="translate(60.267)">
      <g id="Group_1934" data-name="Group 1934" transform="translate(0)">
        <path id="Path_4568" data-name="Path 4568" d="M90.168,0H65.321a.96.96,0,0,0-1.054.82V24.763a.741.741,0,0,0,.309.58l3.106,2.416a1.277,1.277,0,0,0,1.491,0l2.36-1.836,2.36,1.836a1.277,1.277,0,0,0,1.491,0l2.36-1.836L80.1,27.76a1.277,1.277,0,0,0,1.491,0l2.36-1.836,2.36,1.836a1.277,1.277,0,0,0,1.491,0l3.106-2.416a.741.741,0,0,0,.309-.58V.82A.96.96,0,0,0,90.168,0ZM87.062,26.02,84.7,24.183a1.277,1.277,0,0,0-1.491,0L80.85,26.02l-2.36-1.836a1.277,1.277,0,0,0-1.491,0l-2.36,1.836-2.36-1.836a1.277,1.277,0,0,0-1.491,0l-2.36,1.836-2.051-1.6V1.641H89.113V24.424h0Z" transform="translate(-64.267 0)" fill="#fff"/>
      </g>
    </g>
  </g>
</svg>
