<svg xmlns="http://www.w3.org/2000/svg" width="35.314" height="28" viewBox="0 0 35.314 28">
  <g id="handshake" transform="translate(0 -53.024)">
    <g id="Group_1964" data-name="Group 1964" transform="translate(0 53.024)">
      <path id="Path_4602" data-name="Path 4602" d="M35.165,63.591,29.091,53.543a1.035,1.035,0,0,0-1.3-.412l-3.712,1.631-5.724-1.7a1.034,1.034,0,0,0-.795.087L10.968,56.8l-3.8-2.432a1.035,1.035,0,0,0-1.443.336L.149,63.93a1.035,1.035,0,0,0,.329,1.408l2.347,1.5-.474.633A2.9,2.9,0,0,0,4.663,72.1c.056,0,.111,0,.167-.006a2.89,2.89,0,0,0,2.816,2.238q.082,0,.163,0a2.9,2.9,0,0,0,2.815,2.24c.056,0,.111,0,.167-.006a2.9,2.9,0,0,0,5.137,1.079l.093-.125,4.137,2.945a3.037,3.037,0,0,0,4.737-1.85,3.045,3.045,0,0,0,3.042-1.206,2.994,2.994,0,0,0,.566-1.752,3.029,3.029,0,0,0,2.1-1.238,2.991,2.991,0,0,0,.548-1.43A3.042,3.042,0,0,0,33.7,71.729a3.016,3.016,0,0,0-.7-4.221l-1-.715L34.832,65A1.035,1.035,0,0,0,35.165,63.591ZM5.331,69.7a.828.828,0,0,1-1.325-.993L5.363,66.9a.828.828,0,0,1,1.325.993Zm2.981,2.234a.828.828,0,0,1-1.325-.993l1.357-1.81h0L9.3,67.857a.828.828,0,1,1,1.325.993Zm2.981,2.233a.828.828,0,1,1-1.325-.993l2.311-3.084h0l.421-.562a.823.823,0,0,1,.545-.323.837.837,0,0,1,.119-.009.828.828,0,0,1,.661,1.324Zm4.337.423L14.273,76.4a.828.828,0,1,1-1.325-.993L14.3,73.6a.828.828,0,0,1,1.325.993Zm16.556-4.777a.938.938,0,0,1-.166.707.972.972,0,0,1-1.35.221l-.749-.533h0l-4.177-2.969a1.035,1.035,0,1,0-1.2,1.686l4.169,2.964a.95.95,0,0,1,.215,1.32.972.972,0,0,1-1.35.221l-.327-.233h0L24.025,70.9a1.035,1.035,0,1,0-1.2,1.686l3.218,2.288a.95.95,0,0,1,.215,1.321.972.972,0,0,1-1.35.221L23.762,75.6h0l-1.737-1.235a1.035,1.035,0,0,0-1.2,1.686l1.707,1.213a.944.944,0,0,1,.177,1.288.972.972,0,0,1-1.35.221l-4.1-2.916.022-.029a2.9,2.9,0,0,0-1.353-4.469,2.9,2.9,0,0,0-2.98-4.206,2.947,2.947,0,0,0-.325.066A2.9,2.9,0,0,0,8.482,65.86a2.895,2.895,0,0,0-4.358-.652L2.442,64.136l4.505-7.454,1.961,1.255-1.3.717a1.035,1.035,0,0,0-.532.836,4.122,4.122,0,0,0,.434,2.134,4.171,4.171,0,0,0,5.577,1.84l4.8-2.4,2.435.036,9.212,6.486h0L31.8,69.194A.945.945,0,0,1,32.186,69.814ZM30.168,65.5l-8.909-6.273a1.035,1.035,0,0,0-.58-.189l-3.006-.044h-.015a1.035,1.035,0,0,0-.462.109l-5.028,2.511a2.1,2.1,0,0,1-2.806-.922,2.06,2.06,0,0,1-.184-.538l9-4.98,5.672,1.68a1.035,1.035,0,0,0,.71-.045l3.227-1.418,5.079,8.4Z" transform="translate(0 -53.024)" fill="#fff"/>
    </g>
  </g>
</svg>
