<svg xmlns="http://www.w3.org/2000/svg" width="25.977" height="26.684" viewBox="0 0 25.977 26.684">
  <g id="Group_2035" data-name="Group 2035" transform="translate(-588 -6450)">
    <path id="Path_4612" data-name="Path 4612" d="M93.242,0H72.853a2.8,2.8,0,0,0-2.794,2.794v21.1a2.8,2.8,0,0,0,2.794,2.794H93.242a2.8,2.8,0,0,0,2.794-2.794V2.794A2.8,2.8,0,0,0,93.242,0Zm.7,23.89a.7.7,0,0,1-.7.7H72.853a.7.7,0,0,1-.7-.7V2.794a.7.7,0,0,1,.7-.7H93.242a.7.7,0,0,1,.7.7v21.1Z" transform="translate(517.941 6450)" fill="#fff"/>
    <path id="Path_4613" data-name="Path 4613" d="M200.147,58.9h2.136v4.242a1.185,1.185,0,0,0,2.37,0V58.9h2.136a1.185,1.185,0,0,0,0-2.37h-2.136V54.567a1.185,1.185,0,0,0-2.37,0V56.53h-2.136a1.185,1.185,0,1,0,0,2.37Z" transform="translate(397.521 6399.573)" fill="#fff"/>
    <path id="Path_4614" data-name="Path 4614" d="M165.426,253h-8.667a2.8,2.8,0,0,0-2.794,2.794v2.273a2.8,2.8,0,0,0,2.794,2.794h8.667a2.8,2.8,0,0,0,2.794-2.794v-2.273A2.8,2.8,0,0,0,165.426,253Zm.7,5.067a.7.7,0,0,1-.7.7h-8.667a.7.7,0,0,1-.7-.7v-2.273a.7.7,0,0,1,.7-.7h8.667a.7.7,0,0,1,.7.7Z" transform="translate(439.896 6212.161)" fill="#fff"/>
  </g>
</svg>
