<svg xmlns="http://www.w3.org/2000/svg" width="32.607" height="32" viewBox="0 0 32.607 32">
  <g id="social-responsibility" transform="translate(0 -4.76)">
    <path id="Path_4589" data-name="Path 4589" d="M150.812,12.471A7.648,7.648,0,1,0,158.46,4.76,7.656,7.656,0,0,0,150.812,12.471Zm9.528-.956h-3.76c.1-1.55.824-4.844,1.88-4.844C159.591,6.672,160.255,10.229,160.34,11.515Zm-1.88,6.692c-.611,0-1.687-1.792-1.881-4.78h3.762C160.146,16.415,159.071,18.207,158.46,18.207ZM155.477,7.519a13.082,13.082,0,0,0-.813,4H152.8a5.815,5.815,0,0,1,2.675-4ZM152.8,13.427h1.86a12.9,12.9,0,0,0,.8,3.933A5.749,5.749,0,0,1,152.8,13.427Zm8.652,3.933a12.9,12.9,0,0,0,.8-3.934h1.86A5.749,5.749,0,0,1,161.456,17.361Zm2.661-5.845h-1.862a13.082,13.082,0,0,0-.813-4A5.815,5.815,0,0,1,164.117,11.515Z" transform="translate(-141.201)" fill="#fff"/>
    <path id="Path_4590" data-name="Path 4590" d="M12.321,261.62h7.626a8.734,8.734,0,0,0,6.143-2.515l5.841-5.839.677-.676-.676-.676a4.787,4.787,0,0,0-6.758,0l-3.191,3.128-.007.007a2.865,2.865,0,0,1-.891.606v-3.59H9.685a4.748,4.748,0,0,0-3.38,1.4L0,259.765l7.088,7.088,5.233-5.233Zm-4.664-6.808a2.849,2.849,0,0,1,2.028-.84h9.486v1.912H11.46V257.8h8.487a4.749,4.749,0,0,0,3.376-1.4l3.191-3.128.007-.007a2.875,2.875,0,0,1,3.266-.56l-5.049,5.048a6.809,6.809,0,0,1-4.791,1.955H11.529l-1.738,1.738-4.384-4.385ZM2.7,259.765l1.352-1.352L8.439,262.8l-1.352,1.352Z" transform="translate(0 -230.093)" fill="#fff"/>
  </g>
</svg>
