<svg xmlns="http://www.w3.org/2000/svg" width="24.325" height="28" viewBox="0 0 24.325 28">
  <g id="solicitud" transform="translate(-11.297)">
    <path id="Path_4585" data-name="Path 4585" d="M339.685,218.042a1.143,1.143,0,1,1-1.143-1.143A1.143,1.143,0,0,1,339.685,218.042Zm0,0" transform="translate(-315.082 -200.369)" fill="#fff"/>
    <path id="Path_4586" data-name="Path 4586" d="M301.437,72.3a4.2,4.2,0,0,0-4.2,4.2v0a1.143,1.143,0,1,0,2.286,0,1.918,1.918,0,1,1,1.918,1.919,1.143,1.143,0,0,0-1.143,1.143V80.79a1.143,1.143,0,1,0,2.286,0v-.239a4.2,4.2,0,0,0-1.145-8.25Zm0,0" transform="translate(-277.979 -66.791)" fill="#fff"/>
    <path id="Path_4588" data-name="Path 4588" d="M212.31,0H197.617A4.814,4.814,0,0,0,192.8,4.816V26.855a1.144,1.144,0,0,0,1.829.914l4.593-3.444H212.31a4.813,4.813,0,0,0,4.816-4.816V4.816A4.813,4.813,0,0,0,212.31,0Zm2.53,19.509a2.528,2.528,0,0,1-2.53,2.53H198.841a1.144,1.144,0,0,0-.686.229l-3.069,2.3V4.816a2.528,2.528,0,0,1,2.53-2.53H212.31a2.528,2.528,0,0,1,2.53,2.53Zm0,0" transform="translate(-181.504)" fill="#fff"/>
  </g>
</svg>
