<svg xmlns="http://www.w3.org/2000/svg" width="17.5" height="15.313" viewBox="0 0 17.5 15.313">
  <path id="Path_14" data-name="Path 14" d="M145.5,145.84a6,6,0,0,1-2,.612A4.1,4.1,0,0,0,145,144.341a5.588,5.588,0,0,1-2.252.859,0,0,0,0,0,0,0,3.484,3.484,0,0,0-2.611-1.2,3.757,3.757,0,0,0-3.61,3.888,4.119,4.119,0,0,0,.093.866h0a10.155,10.155,0,0,1-7.648-4.033,4.071,4.071,0,0,0,1.095,5.137,2.2,2.2,0,0,1-1.576-.438,3.717,3.717,0,0,0,2.785,3.8,2.637,2.637,0,0,1-1.5.122A3.475,3.475,0,0,0,133,155.98a5.662,5.662,0,0,1-5,1.613,10.268,10.268,0,0,0,5.647,1.72c5.825,0,10.348-5.083,10.1-11.354,0-.008,0-.015,0-.021s0-.034,0-.049,0-.038,0-.059A6.5,6.5,0,0,0,145.5,145.84Z" transform="translate(-127.999 -144)" fill="#118081"/>
</svg>
