<svg xmlns="http://www.w3.org/2000/svg" width="17.5" height="17.5" viewBox="0 0 17.5 17.5">
  <path id="Path_16" data-name="Path 16" d="M133.938,128l-.694,2.7h-.069l-.728-2.7h-1.132l1.437,4.478v1.884h.825v-2.008l1.5-4.354Zm3.592,2.943a1.414,1.414,0,0,0-.342-.974.934.934,0,0,0-.791-.4,1.085,1.085,0,0,0-.849.4,1.184,1.184,0,0,0-.388.943V133a1.348,1.348,0,0,0,.393,1.015.968.968,0,0,0,.822.372c.452,0,.509-.122.771-.361a1.313,1.313,0,0,0,.383-1v-2.08Zm3.182-1.368h-.8v3.187a4.594,4.594,0,0,1-.585.674.153.153,0,0,1-.153-.079.411.411,0,0,1-.063-.255v-3.527h-.8v3.87a1.546,1.546,0,0,0,.186.9.658.658,0,0,0,.766-.109,2.483,2.483,0,0,0,.648-.819v.848h.8Zm4.788,9.63a3.232,3.232,0,0,0-3.2-3.268H131.2A3.233,3.233,0,0,0,128,139.2v3.028a3.234,3.234,0,0,0,3.2,3.267H142.3a3.233,3.233,0,0,0,3.2-3.267Zm-4.4,4.694a1.092,1.092,0,0,1-.859-.347,1.34,1.34,0,0,1-.314-.944v-1.88a2.229,2.229,0,0,1,.345-1.25,1.19,1.19,0,0,1,.885-.343,1.112,1.112,0,0,1,.853.313,2.448,2.448,0,0,1,.3,1.28v.794h-1.551v1.058a.927.927,0,0,0,.082.459.3.3,0,0,0,.276.128.322.322,0,0,0,.278-.109.914.914,0,0,0,.082-.479v-.189h.833v.217a1.357,1.357,0,0,1-.3.968A1.2,1.2,0,0,1,141.1,143.9Zm.379-3.028v-.147a2.782,2.782,0,0,0-.085-.745.31.31,0,0,0-.27-.114.322.322,0,0,0-.277.114,2.782,2.782,0,0,0-.085.745v.147Zm-3.1,3.039a.95.95,0,0,1-.439-.1,1.079,1.079,0,0,1-.356-.295v.334h-.841v-6.314h.791v1.909a1.6,1.6,0,0,1,.4-.3.807.807,0,0,1,.388-.1.71.71,0,0,1,.6.283,1.357,1.357,0,0,1,.207.815v2.816a1.136,1.136,0,0,1-.193.71A.691.691,0,0,1,138.377,143.91Zm-.025-3.729a.589.589,0,0,0-.159-.335.32.32,0,0,0-.261-.11.4.4,0,0,0-.178.042.853.853,0,0,0-.221.131v3.111a.889.889,0,0,0,.25.154.419.419,0,0,0,.2.049.267.267,0,0,0,.225-.1.487.487,0,0,0,.144-.3v-2.648h0Zm-3.235,3.147a2.125,2.125,0,0,1-.481.449.945.945,0,0,1-.484.138.507.507,0,0,1-.435-.193.946.946,0,0,1-.171-.58v-3.995h.806v3.7a.376.376,0,0,0,.052.221.21.21,0,0,0,.171.068.6.6,0,0,0,.282-.093,1.425,1.425,0,0,0,.308-.228v-3.669h.785V143.9h-.834v-.574Zm-2.346.569h-.8v-5.566h-.782v-.795h2.39v.795h-.807V143.9Zm3.577-10.373a.393.393,0,0,1-.3-.112.433.433,0,0,1-.108-.317v-2.218a.336.336,0,0,1,.114-.264.425.425,0,0,1,.3-.1.357.357,0,0,1,.27.1.327.327,0,0,1,.123.264v2.218a.427.427,0,0,1-.12.317A.343.343,0,0,1,136.348,133.524Z" transform="translate(-128 -128)" fill="#118081"/>
</svg>
