<svg xmlns="http://www.w3.org/2000/svg" enable-background="new 0 0 64 64" viewBox="0 0 64 64"><path fill="#ffffff" d="M58.7,13.3c-0.3-0.2-0.6-0.3-1-0.2l-9.4,3.1C43,17.9,39,21.8,37.1,26.8l-3,8.1c-0.9,1.7-1.6,3.4-2.1,4.8
		c-0.7-2.4-1.8-5.5-3.5-8.6L26,21.5c-1.6-5.7-5.4-10.2-10.4-12.4l-9.1-4C6.1,4.9,5.7,5,5.4,5.2C5.1,5.4,5,5.8,5,6.2l1.4,9
		c1.2,7.6,6.2,13.5,13,15.5l7.7,2.3c2.1,4,3.2,8.1,3.6,10.1c-9.1,0.4-16.8,4.9-19.5,11.6c-0.4,1-0.3,2.1,0.3,3
		C12.1,58.5,13,59,14,59h36c1,0,1.9-0.5,2.5-1.3c0.6-0.9,0.7-2,0.3-3C50.1,48,42.3,43.4,33.2,43c0.3-1.3,0.9-3.5,2.1-5.9l7.9-1.6
		c7-1.4,12.4-6.6,13.9-13.3l1.9-8C59.1,13.9,58.9,13.5,58.7,13.3z M20.1,28.8C20.1,28.8,20.1,28.8,20.1,28.8
		C14,27,9.5,21.7,8.4,14.8L7.3,7.7l7.4,3.3c4.5,2,7.9,6,9.3,11.1l1.2,4.3c-2.1-2.4-4.8-4.3-8.1-5.2c-0.5-0.1-1.1,0.2-1.2,0.7
		c-0.1,0.5,0.2,1.1,0.7,1.2c4,1,7,3.9,9.1,7.3L20.1,28.8z M50.9,55.4c0.2,0.4,0.1,0.8-0.1,1.2C50.7,56.7,50.4,57,50,57H14
		c-0.4,0-0.7-0.3-0.8-0.5c-0.2-0.3-0.3-0.8-0.1-1.2C15.6,49.3,23.3,45,32,45S48.4,49.3,50.9,55.4z M55.2,21.8
		c-1.4,6-6.1,10.5-12.4,11.8h0l-6.2,1.3c2.1-3.3,5.2-6.5,10.1-7.6c0.5-0.1,0.9-0.7,0.8-1.2c-0.1-0.5-0.7-0.9-1.2-0.8
		c-3.3,0.7-5.9,2.3-7.9,4.2l0.8-2c1.6-4.5,5.3-7.9,9.9-9.4l7.7-2.6L55.2,21.8z"/></svg>