<svg xmlns="http://www.w3.org/2000/svg" width="70" height="41" viewBox="0 0 70 41">
  <g id="Group_3" data-name="Group 3" transform="translate(-229 -12)">
    <text id="Tienda_virtual" data-name="Tienda virtual" transform="translate(264 50)" fill="#327240" font-size="11" font-family="OpenSans, Open Sans"><tspan x="-34.912" y="0">Tienda virtual</tspan></text>
    <g id="shopping-cart_3_" data-name="shopping-cart (3)" transform="translate(250 12)">
      <path id="Path_4555" data-name="Path 4555" d="M9.164,16.667H24.278a.833.833,0,0,0,.8-.6L28.412,4.4a.833.833,0,0,0-.8-1.062H7.243L6.647.653A.833.833,0,0,0,5.833,0h-5a.833.833,0,0,0,0,1.667H5.165L8.174,15.206A2.5,2.5,0,0,0,9.167,20H24.278a.833.833,0,0,0,0-1.667H9.167a.833.833,0,0,1,0-1.666ZM26.506,5,23.649,15H9.835L7.613,5Zm0,0" fill="#327240"/>
      <path id="Path_4556" data-name="Path 4556" d="M150,362.5a2.5,2.5,0,1,0,2.5-2.5A2.5,2.5,0,0,0,150,362.5Zm2.5-.833a.833.833,0,1,1-.833.833A.834.834,0,0,1,152.5,361.667Zm0,0" transform="translate(-141.667 -340)" fill="#327240"/>
      <path id="Path_4557" data-name="Path 4557" d="M362,362.5a2.5,2.5,0,1,0,2.5-2.5A2.5,2.5,0,0,0,362,362.5Zm2.5-.833a.833.833,0,1,1-.833.833A.834.834,0,0,1,364.5,361.667Zm0,0" transform="translate(-341.889 -340)" fill="#327240"/>
    </g>
  </g>
</svg>
