<svg xmlns="http://www.w3.org/2000/svg" width="166.755" height="50" viewBox="0 0 166.755 50">
  <g id="Group_1" data-name="Group 1" transform="translate(-79.968 -340.621)">
    <path id="Path_1" data-name="Path 1" d="M85.442,437.054v-.625l.1-.417V435.7l.1-.208.1-.208h.2l.507-.1.3-.1.1-.1v-.1l-.1-.1-.1-.1H81.691l-.1.1v.208l.1.1.507.1.608.1.1.1h.1l.1.1.1.208v.313l.1,1.042v7.4l-.1.938-.1.729v.312l-.1.313-.1.521-.2.313-.1.1H82.2l-.507-.209-.507-.208-.2-.1h-.406l-.1.1-.3.208-.2.313v.416l.1.208.1.1h.1l.3.1h1.115l.71-.208.608-.208.608-.312.405-.312.406-.417.406-.416.2-.417.2-.625.1-.729.1-.937v-6.979Z" transform="translate(0 -57.995)" fill="#fff" fill-rule="evenodd"/>
    <path id="Path_2" data-name="Path 2" d="M102.832,441.094h.507l.1.208.2.208.811,2.188.2.417v.208l-.1.1-.2.1h-.3l-.507.1v.313l.1.1h4.764v-.1l.1-.1-.1-.1v-.1l-.3-.1-.608-.1-.2-.1-.2-.1-.2-.312-.3-.729-2.737-6.771-.811-2.187-.1-.1h-.2l-.405.313-.406.313-.507.1v.208l-.1.313-.3.625-2.534,5.833-.507,1.146-.406.833-.2.313-.2.208-.3.1-.3.1-.608.1v.1l-.1.1.1.208h3.954l.1-.208-.1-.1v-.1l-.609-.1h-.2l-.2-.1h-.1l-.1-.1.1-.312.1-.521.811-1.979.1-.208.1-.208h2.94Zm-2.23-.729h-.2l-.2-.1v-.1l.1-.312.811-1.875.608-1.25.2.313.3.938.811,1.979.1.208v.1h-.1l-.1.1H100.6Z" transform="translate(-9.787 -57.66)" fill="#fff" fill-rule="evenodd"/>
    <path id="Path_3" data-name="Path 3" d="M129.462,442.99v.625l-.1.417v.313l-.1.208-.2.208h-.1l-.3.1h-.3l-.405.1-.1.1v.1l.1.208h5.17v-.417l-.406-.1-.608-.1h-.2v-.1l-.1-.1-.1-.208v-.313l-.1-1.042V440.8l.1-.1.2-.1h.709l.3.1.2.208.2.208.811,1.146.71,1.146.405.521.406.417.507.312.406.312.507.209.507.208.507.1H139.5l.507-.1v-.312h-.3l-.3-.1-.3-.1-.405-.312-.3-.208-.406-.417-.709-.833-1.926-2.709-.1-.208.1-.1.405-.1.3-.208.406-.208.406-.312.1-.1.2-.208.2-.417.1-.208.1-.208v-.938l-.1-.416-.1-.312-.2-.312-.3-.312-.2-.209-.406-.208-.3-.208-.71-.208-.811-.208-1.014-.1H130.07l-2.027.1-.1.1v.208l.1.1.507.1.507.1.1.1.1.1.2.625v6.771Zm2.129-6.875v-.521l.1-.208.3-.1h1.216l.2.1.3.1.405.208.406.312.3.313.2.417.1.416.1.521-.1.521-.1.521-.2.312-.3.417-.406.208-.405.209-.608.1h-1.318l-.1-.1-.1-.1v-3.646Z" transform="translate(-29.524 -57.995)" fill="#fff" fill-rule="evenodd"/>
    <path id="Path_4" data-name="Path 4" d="M159.614,442.99v.625l-.1.417v.313l-.1.208-.1.208h-.2l-.3.1h-.3l-.405.1v.1l-.1.1.1.208h3.649l1.521.1h.608l.71-.1,1.217-.1,1.115-.208,1.014-.417.811-.417.71-.417.608-.625.2-.208.2-.312.406-.625.2-.729.1-.312.1-.313v-1.562l-.3-.833-.3-.729-.2-.313-.2-.312-.608-.521-.608-.521-.811-.417-.405-.208-.405-.1-1.014-.313-1.013-.1-1.115-.1h-3.751l-2.23.1-.1.1v.313h.1l.406.1.507.1.2.1.1.1.1.625v6.771Zm2.129-6.25.1-.937v-.209l.1-.1.507-.1.406-.1h.608l1.115.1,1.014.208.507.1.406.208.405.312.405.209.3.313.3.416.2.313.2.521.2.417.1.521.1.521V440.6l-.1.417-.1.521-.1.417-.3.833-.3.313-.2.313-.405.313-.3.313-.405.208-.406.208-.507.208-.507.1h-.608l-.609.1-.608-.1-.507-.1-.405-.208-.1-.1-.2-.1-.1-.417-.1-.417-.1-.417v-6.25Z" transform="translate(-48.12 -57.995)" fill="#fff" fill-rule="evenodd"/>
    <path id="Path_5" data-name="Path 5" d="M198.241,437.054v-.625l.1-.417V435.7l.1-.208.1-.208h.2l.3-.1h.3l.406-.1v-.417h-5.17l-.1.208.1.1v.1l.406.1.608.1h.1l.1.1.1.1.1.208v.313l.1,1.042v6.562l-.1.417v.313l-.1.208-.2.208h-.1l-.3.1H195l-.406.1v.1l-.1.1.1.208h5.17v-.417l-.406-.1-.608-.1h-.2v-.1l-.1-.1-.1-.208v-.313l-.1-1.042Z" transform="translate(-70.629 -57.995)" fill="#fff" fill-rule="evenodd"/>
    <path id="Path_6" data-name="Path 6" d="M221.141,438.72v-1.875l.1-.729V435.8l.1-.209.2-.208.1-.1.507-.1.507-.1v.313h-.1l-.507-.1-.406-.312-.2-.1-.3-.1-.2-.1H218.5l-.1.1-.1.1v.1l.1.1.406.1.608.1.2.1.2.208.2.521.1.729v5.417l-.406-.312-.811-.729-1.52-1.458-1.926-1.771-.71-.729-.912-.937-.507-.521-.406-.417-.3-.417-.2-.313h-3.548l-.1.208v.1l.1.1.3.1.506.1.2.1.3.1.3.313.1.208.1.1.1.521v4.688l-.1,1.875v.729l-.1.313-.1.208-.1.208-.2.1-.507.1-.406.1-.1.1v.208l.1.1h4.258v-.312l-.1-.1-.406-.1-.608-.1-.2-.1-.1-.208-.1-.208-.1-.312-.1-.729-.1-.937v-5l.1-.1v-.1l.71.729,1.419,1.354,4.359,4.375.912.833.608.417.608.521.406.1h.2l.1-.1V438.72Z" transform="translate(-79.438 -57.995)" fill="#fff" fill-rule="evenodd"/>
    <path id="Path_7" data-name="Path 7" d="M238.131,443.1v1.042l.1.417v.313l.1.208.2.208.2.1h7.1l.2-.417.2-.625.2-.729.1-.521-.1-.1-.1-.1h-.2l-.1.1-.3.417-.2.417-.3.312-.1.1-.2.1-.406.208-.507.1-.71.1h-.811l-.912-.1h-.608l-.406-.1-.2-.208-.1-.208-.1-.417-.1-.416v-2.917l.1-.1.1-.1h2.128l.406.1h.3l.1.1.2.1.1.208v.208l.2.625.1.1h.3l.1-.1V438.2l-.1-.1h-.3l-.1.1-.2.521v.208l-.1.208-.2.1-.1.1-.3.1H240.26l-.1-.1-.1-.1V435.7l.1-.1v-.1l.1-.1h.2l.406-.1h1.318l.71.1.811.1h.2l.1.1.2.1.1.208.3.417.2.625h.507l.1-.1-.1-1.25-.2-.937h-6.387l-.2.1-.2.208-.1.208v.313l-.1.416V443.1Z" transform="translate(-97.544 -57.995)" fill="#fff" fill-rule="evenodd"/>
    <path id="Path_8" data-name="Path 8" d="M263.733,445.26h.912l.913-.208.709-.312.608-.312.3-.208.2-.312.2-.208.2-.312.1-.312.1-.313v-.312l.1-.312-.1-.625-.2-.521-.2-.417-.406-.417-.3-.417-.507-.312-.406-.208-.507-.312-1.115-.521-.507-.208-.3-.208-.3-.208-.3-.313-.2-.208-.1-.312-.1-.208v-.625l.1-.312.2-.312.1-.1.1-.1.3-.208.406-.208.406-.1h1.115l.405.208.405.208.3.208.3.313.2.313.2.313.1.313.2.1h.3l.1-.1v-.625l-.1-.625-.1-.521-.2-.417-1.216-.208-.608-.1h-1.723l-.811.208-.71.313-.608.313-.2.208-.2.208-.3.521-.2.521-.1.313v.312l.1.521.1.521.3.417.3.417.406.416.405.313.507.313.507.208.811.417.507.208.406.313.3.313.3.208.2.313.1.313.1.313v.729l-.1.313-.2.313-.3.208-.3.208-.406.208-.406.1h-.507l-.71-.1-.507-.208-.3-.1-.2-.208-.2-.1-.2-.208-.406-.417-.3-.417-.2-.417-.2-.312-.1-.1h-.3l-.1.1v.729l.1.729.2.625.2.417.406.208.608.208.912.208h1.217Z" transform="translate(-111.082 -57.66)" fill="#fff" fill-rule="evenodd"/>
    <path id="Path_9" data-name="Path 9" d="M294.766,442.99v.625l-.1.417v.313l-.1.208-.2.208h-.1l-.3.1h-.3l-.406.1v.1l-.1.1.1.208h3.649l1.521.1h.608l.608-.1,1.217-.1,1.217-.208,1.014-.417.811-.417.71-.417.608-.625.2-.208.2-.312.405-.625.2-.729.1-.312.1-.313v-1.146l-.1-.417-.2-.833-.3-.729-.2-.313-.3-.312-.506-.521-.71-.521-.709-.417-.406-.208-.406-.1-1.013-.313-1.014-.1-1.115-.1h-3.852l-2.129.1-.1.1v.313h.1l.405.1.507.1.1.1.1.1.2.625v6.771Zm2.129-6.25V435.8l.1-.209.1-.1.507-.1.405-.1h.608l1.115.1,1.013.208.507.1.406.208.406.312.3.209.405.313.3.416.2.313.2.521.2.417.1.521.1.521V440.6l-.1.417-.1.521-.1.417-.406.833-.2.313-.3.313-.3.313-.3.313-.406.208-.406.208-.507.208-.507.1h-.608l-.608.1-.608-.1-.507-.1-.406-.208-.2-.1-.1-.1-.1-.417-.1-.417-.1-.417v-6.25Z" transform="translate(-131.472 -57.995)" fill="#fff" fill-rule="evenodd"/>
    <path id="Path_10" data-name="Path 10" d="M330.776,442.991l-.1.625v.729l-.1.208-.2.208h-.2l-.2.1h-.3l-.709.1v.1l-.1.1.1.208h9.63l.3-.417.2-.625.2-.729.1-.521-.1-.1-.2-.1h-.1l-.2.1-.2.417-.3.417-.2.312-.2.1-.1.1-.406.208-.608.1-.609.1h-.811l-.912-.1h-.608l-.405-.1-.2-.208-.1-.208-.1-.417-.1-.416v-2.917l.1-.1.1-.1h2.129l.406.1h.2l.2.1.1.1.1.208.1.208.1.625.2.1h.3l.1-.1V438.2l-.1-.1h-.3l-.2.1-.1.521-.1.208-.1.208-.1.1-.2.1-.2.1h-2.534l-.1-.1-.1-.1v-3.646l.1-.1.1-.1h.1l.507-.1h1.217l.811.1.71.1h.2l.2.1.2.1.1.208.3.417.2.625h.507l.1-.1-.2-1.25-.1-.937h-8.616l-.1.208.1.1v.1l.3.1h.507l.2.1.1.1.1.1.1.208v.313l.1,1.042Z" transform="translate(-153.493 -57.995)" fill="#fff" fill-rule="evenodd"/>
    <path id="Path_11" data-name="Path 11" d="M370.1,437.054v-1.042l.1-.312.1-.208.1-.1.2-.1.507-.1.406-.1h.1v-.312l-.1-.1h-5.17l-.1.1v.208l.1.1.506.1.507.1.2.1h.1v.1l.1.208.1.313v8.021l-.1.313-.1.208-.1.1-.2.1-.2.1h-.3l-.608.1v.1l-.1.1.1.1.1.1h9.123l.2-.417.2-.625.405-1.25-.3-.1-.1-.1-.2.1-.608.938-.2.313-.3.208-.406.208h-.406l-1.318.1-.912-.1h-.609l-.3-.1-.2-.208-.2-.208-.1-.417v-6.666Z" transform="translate(-176.492 -57.995)" fill="#fff" fill-rule="evenodd"/>
    <path id="Path_12" data-name="Path 12" d="M398.427,441.094h.506l.2.208.1.208.912,2.188.1.417v.313h-.1l-.1.1h-.405l-.406.1-.1.1v.208l.1.1H404l.1-.1v-.208l-.1-.1-.3-.1-.608-.1-.2-.1-.1-.1-.3-.312-.3-.729-2.635-6.771-.912-2.187-.1-.1h-.2l-.405.313-.406.313-.507.1v.208l-.1.313-.2.625-2.635,5.833-.508,1.146-.405.833-.2.313-.2.208-.3.1-.3.1-.608.1v.417h3.954l.1-.208v-.1l-.1-.1-.507-.1h-.3l-.1-.1h-.2v-.417l.2-.521.709-1.979.1-.208.1-.208h2.94Zm-2.129-.729h-.3l-.1-.1v-.1l.1-.312.71-1.875.608-1.25.2.313.3.938.811,1.979.1.208v.1l-.2.1H396.3Z" transform="translate(-192.151 -57.66)" fill="#fff" fill-rule="evenodd"/>
    <path id="Path_13" data-name="Path 13" d="M433.621,442.991v.625l-.1.417v.313l-.1.208-.2.208-.1.1-.608.1h-.3v.1l-.1.1.1.208h5.373v-.312l-.1-.1-.71-.1h-.2l-.3-.1h-.2l-.1-.208-.1-.208-.1-.313v-8.437l.1-.208.1-.1h1.419l.2.1.3.1.2.1.2.1.2.1.2.208.2.208.1.209.2.416.2.417v.938l-.1.521-.2.417-.2.313-.3.313-.405.313-.507.208-.608.1v.313l.1.1h1.014l.709-.1.71-.208.709-.312.507-.417.3-.208.2-.312.2-.312.2-.417V438.1l.1-.417-.1-.313v-.417l-.2-.312-.1-.312-.3-.312-.2-.312-.406-.208-.3-.208-.71-.312-.912-.208-1.013-.1h-4.46l-1.014.1-.1.1v.208l.1.1.709.1h.2l.2.1.2.1.1.208v.521l.1.834Z" transform="translate(-217.108 -57.995)" fill="#fff" fill-rule="evenodd"/>
    <path id="Path_14" data-name="Path 14" d="M458.994,441.094h.507l.2.208.1.208.912,2.188.1.417v.313h-.1l-.1.1h-.405l-.405.1-.1.1v.208l.1.1h4.764l.1-.1v-.208l-.1-.1-.3-.1-.608-.1-.2-.1-.1-.1-.3-.312-.3-.729-2.636-6.771-.913-2.187-.1-.1h-.2l-.406.313-.405.313-.507.1v.521l-.3.625-2.635,5.833-.507,1.146-.405.833-.2.313-.2.208-.2.1-.406.1-.507.1-.1.1v.312h4.055v-.312l-.1-.1-.506-.1h-.3l-.1-.1h-.1l-.1-.1v-.312l.2-.521.709-1.979.1-.208.1-.208h2.939Zm-2.128-.729h-.3l-.1-.1v-.1l.1-.312.811-1.875.507-1.25.2.313.405.938.709,1.979.1.208v.1l-.2.1h-2.229Z" transform="translate(-229.505 -57.66)" fill="#fff" fill-rule="evenodd"/>
    <path id="Path_15" data-name="Path 15" d="M488.974,433.987h-1.52l-.2-.1-.1-.1-.1-.1-.1-.1h-.3l-.406,1.354-.405,1.354.1.1.2.1h.1l.2-.1.3-.625.3-.312.2-.209.507-.312.608-.1.71-.1,1.014-.1h2.23l.507.1h.2l-.1.208-.3.417-.912,1.25-4.157,5.417-.608.834-.608.729-.912.938v.1l.1.1h10.34l.2-.417.3-.625.2-.729.2-.833-.1-.1-.2-.1h-.2l-.1.1-.3.521-.3.521-.405.417-.405.208-.507.208-.608.1h-.913l-1.216.1-2.129-.1h-.406l-.2-.1v-.1l.2-.312.406-.625.912-1.146,3.042-3.958,1.622-2.187.709-.833.507-.521v-.208h-7.2Z" transform="translate(-250.058 -57.325)" fill="#fff" fill-rule="evenodd"/>
    <path id="Path_16" data-name="Path 16" d="M221.767,372.288v1.25h43.69l.1-.208.1-.209.1-.208v-.729l-.2-.208-2.028-.1-1.622-.1-.71-.1-.406-.1h-.2l-.507-.1-.3-.208-.2-.208-.3-.312-.2-.417-.1-.208-.1-.209-.3-.1-.506-.1h-.507l-.71-.1-.811-.1-.71-.208-.608-.208-.507.1h-3.041l-.912-.1-.913-.1h-.406l-.2-.1-.2-.1-.1-.208-.1-.208-.3-1.875-.3-2.709v-.938l.1-.1v-.1l1.216.729.3.1.2.1h.506l.608-.1,1.014-.312.709-.208,1.014-.312h.406l.507.1.71.1,1.115.209.507.1h1.014l.3-.208.2-.312.2-.208-.2-1.042.1-.312.1-.208.1-.1h.1l1.521-.1,1.419-.1.2.625-.2.729.1.521.709-.208,1.723-.208,4.258,1.25v-1.042l-.1-.312v-.208l-.1-.417.1-.312.1-.208.1-.208.1-.1.3-.1.506-.208,3.143.1,1.723-.1.1-.208.507-.417.2-.208.3-.208.3-.1h.2l.2-.1.1-.1.1-.1v-.208l-.1-.1-.3-.208-1.419-1.979-.709-.312-1.014-.312-.2-.1-.1-.208v-.1l.1-.208v-.1l.1-.1,1.115-.312.811-.208.608-.1h.811v-.312l-.2-.313-.406-.416-3.852-.313L268.3,352.5l-1.318-.208-.912-.1-.406-.937-.1-.1-.1-.1-.406-.208-.507-.312-.71-.521-.71-.833-.912-.833-.507-.521-.507-.312-.608-.312-.3-.1h-.3v.1l-.2.1h-.2l-.406-.1-.507-.1-.811-.312-1.014-.521-1.014-.417-.811-.312-.811-.208-2.028-.208-.3-.1-.3-.1-.1-.208v-.1l-.1-.208v-.312l.1-.1v-.625l-.2-.208-.3-.312-.507-.208h-.3l-1.014-.208-.608-.208-.71-.312-.811-.417-.406-.312-.405-.312-.1-.1-.507-.1h-1.521l-.912.208-.1.208-.2.208-.3.313-.507.208-.811.208-.912.1H239l-1.723.208-1.419.208-.709.1-.507.1-.71.208v1.563l-.1.1-.1.1-.1.1-.3.209-.3.208.1.313.1.1v.208l-.1.208-.2.1-.507.1-1.419.313-1.926.417v1.354h-3.041l-.507.1-.2.1-.1.1v.1l-.1.313.1.729v2.6l-.1.1-.608-.1-.3-.1-.506-.937v-.208l-.1-.313-.2-.1h-.2l-.2.1-.406.313-.406.625-.3.208-.2.208-.3.208-.3.1-.1.209-.1.1-.1.1v.208l.1.1.3.1h.406l.2.313.3.729.1.417v.417l-.1.417-.1.208-.1.1-.406.521-.2.313-.2.1h-.2l-.912.1-.608.521-1.419.1-.1.521-.1.521-.2.208-.1.1-.3.1-.406.208-1.014.208-.406.1-.406.1-.1.1-.1.1-.1.1v.208l.2.417.709-.1H216.6l.406.1.1.1v.417l1.318-.313.2-.1.2-.1h.608l.2.1.1.1.1.1.1.208.1.313.1.313-.406.312h-2.028l-1.115.1-1.014.1-.912.208-.3.1-.1.1-.1.208-.1.208v.313l.1.1.1.1.2.208.507.1H216.8l1.216-.1,1.115-.208,1.115-.1,1.318-.1,1.318-.1H224.5l1.926.1.3.313.1.729.2.417,2.331.313.913.1,1.115.1h1.014l.912-.1,1.622-.208,1.115-.208.811-.1.3-.1.1-.1.2-.208.1-.1v-.209l-.1-.1-.1-.1-.406-.625,1.622.1v.521l.2.1,1.318.1h1.926l.608.209.3.1.1.1v.208l.3.833.2.729v.625l-3.852,2.6h-1.216l-2.129,1.667-.3.208-.2.1h-.608l-.405-.208-.608-.208H231.9l-.3.313-.608.417-.506.1-1.115.1-3.142.1Z" transform="translate(-82.7 0)" fill="#fff" fill-rule="evenodd"/>
  </g>
</svg>
