<svg xmlns="http://www.w3.org/2000/svg" width="167" height="50.356" viewBox="0 0 167 50.356">
  <g id="Grupo_3" data-name="Grupo 3" transform="translate(-79.968 -340.621)">
    <rect id="Rectángulo_1" data-name="Rectángulo 1" width="162.637" height="1.147" transform="translate(84.33 389.83)" fill="#fff"/>
    <path id="Trazado_1" data-name="Trazado 1" d="M85.447,437.056v-.626l.1-.417V435.7l.1-.209.1-.209h.2l.507-.1.3-.1.1-.1v-.1l-.1-.1-.1-.1H81.692l-.1.1v.208l.1.1.507.1.609.1.1.1h.1l.1.1.1.209v.313l.1,1.043v7.4l-.1.938-.1.73v.312l-.1.313-.1.521-.2.313-.1.1H82.2l-.507-.209-.507-.209-.2-.1h-.406l-.1.1-.3.209-.2.313v.417l.1.209.1.1h.1l.3.1h1.116l.71-.209.609-.209.609-.312.406-.313.406-.417.406-.417.2-.417.2-.625.1-.73.1-.938v-6.985Z" transform="translate(0 -57.964)" fill="#fff" fill-rule="evenodd"/>
    <path id="Trazado_2" data-name="Trazado 2" d="M102.838,441.1h.507l.1.209.2.209.811,2.189.2.417v.208l-.1.1-.2.1h-.3l-.508.1v.313l.1.1h4.769v-.1l.1-.1-.1-.1v-.1l-.3-.1-.609-.1-.2-.1-.2-.1-.2-.313-.3-.73-2.74-6.777-.811-2.189-.1-.1h-.2l-.405.313-.406.313-.508.1v.208l-.1.313-.3.625-2.536,5.838-.507,1.147-.406.834-.2.313-.2.208-.3.1-.3.1-.609.1v.1l-.1.1.1.208H99.9l.1-.208-.1-.1v-.1l-.609-.1h-.2l-.2-.1h-.1l-.1-.1.1-.313.1-.521.811-1.981.1-.209.1-.209h2.942Zm-2.232-.73h-.2l-.2-.1v-.1l.1-.312.811-1.877.609-1.251.2.313.3.938.812,1.981.1.208v.1h-.1l-.1.1h-2.333Z" transform="translate(-9.782 -57.629)" fill="#fff" fill-rule="evenodd"/>
    <path id="Trazado_3" data-name="Trazado 3" d="M129.463,443v.626l-.1.417v.313l-.1.208-.2.209h-.1l-.3.1h-.3l-.405.1-.1.1v.1l.1.208h5.174v-.417l-.406-.1-.609-.1h-.2v-.1l-.1-.1-.1-.208v-.313l-.1-1.043v-2.189l.1-.1.2-.1h.71l.3.1.2.209.2.209.811,1.147.71,1.147.405.521.406.417.508.313.406.313.507.209.508.208.507.1h1.421l.507-.1v-.312h-.3l-.3-.1-.3-.1-.406-.313-.3-.208-.406-.417-.71-.834-1.928-2.711-.1-.208.1-.1.406-.1.3-.209.406-.209.406-.312.1-.1.2-.208.2-.417.1-.209.1-.208v-.939l-.1-.417-.1-.313-.2-.312-.3-.313-.2-.209-.406-.208-.3-.208-.71-.209-.811-.208-1.015-.1h-3.348l-2.029.1-.1.1v.209l.1.1.507.1.507.1.1.1.1.1.2.626V443Zm2.131-6.88V435.6l.1-.208.3-.1h1.217l.2.1.3.1.405.209.406.313.3.313.2.417.1.417.1.522-.1.521-.1.522-.2.313-.3.417-.406.208-.405.209-.609.1H131.8l-.1-.1-.1-.1v-3.648Z" transform="translate(-29.508 -57.963)" fill="#fff" fill-rule="evenodd"/>
    <path id="Trazado_4" data-name="Trazado 4" d="M159.615,443v.626l-.1.417v.313l-.1.208-.1.209h-.2l-.3.1h-.3l-.406.1v.1l-.1.1.1.208h3.652l1.522.1h.608l.71-.1,1.218-.1,1.116-.208,1.015-.417.812-.417.71-.417.608-.626.2-.209.2-.313.406-.626.2-.73.1-.313.1-.313V439.14l-.3-.834-.3-.73-.2-.313-.2-.313-.609-.521-.609-.521-.812-.417-.405-.208-.406-.1-1.015-.313-1.014-.1-1.116-.1h-3.754l-2.232.1-.1.1v.313h.1l.406.1.508.1.2.1.1.1.1.626V443Zm2.131-6.255.1-.938V435.6l.1-.1.507-.1.406-.1h.608l1.116.1,1.015.208.507.1.406.208.405.313.406.209.3.313.3.417.2.313.2.521.2.417.1.521.1.521V440.6l-.1.417-.1.521-.1.417-.3.834-.3.313-.2.313-.406.313-.3.313-.405.209-.406.209-.507.208-.507.1h-.609l-.609.1-.608-.1-.507-.1-.406-.208-.1-.1-.2-.1-.1-.417-.1-.417-.1-.417v-6.255Z" transform="translate(-48.094 -57.963)" fill="#fff" fill-rule="evenodd"/>
    <path id="Trazado_5" data-name="Trazado 5" d="M198.244,437.056v-.626l.1-.417V435.7l.1-.209.1-.209h.2l.3-.1h.3l.406-.1v-.417h-5.174l-.1.209.1.1v.1l.406.1.609.1h.1l.1.1.1.1.1.209v.313l.1,1.043v6.568l-.1.417v.313l-.1.209-.2.209h-.1l-.3.1H195l-.406.1v.1l-.1.1.1.208h5.174v-.417l-.406-.1-.609-.1h-.2v-.1l-.1-.1-.1-.209v-.313l-.1-1.042Z" transform="translate(-70.591 -57.964)" fill="#fff" fill-rule="evenodd"/>
    <path id="Trazado_6" data-name="Trazado 6" d="M221.151,438.724v-1.877l.1-.729V435.8l.1-.209.2-.208.1-.1.507-.1.507-.1v.313h-.1l-.507-.1-.406-.313-.2-.1-.3-.1-.2-.1h-2.435l-.1.1-.1.1v.1l.1.1.406.1.609.1.2.1.2.208.2.522.1.729v5.422l-.406-.313-.812-.73-1.521-1.46-1.928-1.772-.71-.73-.913-.938-.507-.521-.406-.417-.3-.417-.2-.313h-3.551l-.1.209v.1l.1.1.3.1.507.1.2.1.3.1.3.313.1.208.1.1.1.521v4.692l-.1,1.877v.73l-.1.313-.1.209-.1.208-.2.1-.507.1-.406.1-.1.1v.208l.1.1h4.262v-.312l-.1-.1-.406-.1-.608-.1-.2-.1-.1-.208-.1-.209-.1-.313-.1-.73-.1-.938v-5l.1-.1v-.1l.71.73,1.42,1.355,4.363,4.379.913.834.609.417.609.521.406.1h.2l.1-.1v-6.568Z" transform="translate(-79.395 -57.964)" fill="#fff" fill-rule="evenodd"/>
    <path id="Trazado_7" data-name="Trazado 7" d="M238.131,443.1v1.042l.1.417v.313l.1.209.2.208.2.1h7.1l.2-.417.2-.625.2-.73.1-.521-.1-.1-.1-.1h-.2l-.1.1-.3.417-.2.417-.3.313-.1.1-.2.1-.406.209-.507.1-.71.1h-.812l-.913-.1h-.609l-.406-.1-.2-.209-.1-.209-.1-.417-.1-.417v-2.919l.1-.1.1-.1h2.13l.406.1h.3l.1.1.2.1.1.209v.209l.2.626.1.1h.3l.1-.1V438.2l-.1-.1h-.3l-.1.1-.2.522v.208l-.1.208-.2.1-.1.1-.3.1h-2.536l-.1-.1-.1-.1V435.7l.1-.1v-.1l.1-.1h.2l.406-.1h1.319l.71.1.812.1h.2l.1.1.2.1.1.208.3.417.2.625h.507l.1-.1-.1-1.251-.2-.938H238.74l-.2.1-.2.208-.1.209v.313l-.1.417V443.1Z" transform="translate(-97.491 -57.964)" fill="#fff" fill-rule="evenodd"/>
    <path id="Trazado_8" data-name="Trazado 8" d="M263.736,445.27h.913l.913-.209.71-.313.609-.313.3-.209.2-.313.2-.209.2-.313.1-.312.1-.313v-.313l.1-.312-.1-.626-.2-.521-.2-.417-.406-.417-.3-.417-.507-.313-.406-.209-.507-.312-1.116-.521-.507-.209-.3-.209-.3-.208-.3-.313-.2-.209-.1-.313-.1-.208V436.1l.1-.313.2-.313.1-.1.1-.1.3-.208.406-.209.406-.1h1.116l.406.209.406.208.3.209.3.313.2.313.2.313.1.313.2.1h.3l.1-.1v-.625l-.1-.625-.1-.521-.2-.417-1.217-.209-.609-.1h-1.725l-.812.208-.71.313-.609.313-.2.208-.2.209-.3.521-.2.521-.1.313v.313l.1.521.1.521.3.417.3.417.406.417.406.313.507.313.507.208.812.417.507.209.406.313.3.313.3.209.2.313.1.313.1.313v.729l-.1.313-.2.313-.3.209-.3.209-.406.209-.406.1h-.507l-.71-.1-.507-.209-.3-.1-.2-.209-.2-.1-.2-.209-.406-.417-.3-.417-.2-.417-.2-.312-.1-.1h-.3l-.1.1v.73l.1.73.2.626.2.417.406.209.609.208.913.209h1.218Z" transform="translate(-111.023 -57.629)" fill="#fff" fill-rule="evenodd"/>
    <path id="Trazado_9" data-name="Trazado 9" d="M294.767,443v.626l-.1.417v.313l-.1.208-.2.209h-.1l-.3.1h-.3l-.406.1v.1l-.1.1.1.208H296.9l1.522.1h.609l.608-.1,1.218-.1,1.218-.208,1.015-.417.811-.417.71-.417.609-.626.2-.209.2-.313.406-.626.2-.73.1-.313.1-.313v-1.147l-.1-.417-.2-.834-.3-.73-.2-.313-.3-.313-.507-.521-.71-.521-.71-.417-.406-.208-.406-.1-1.014-.313-1.015-.1-1.116-.1h-3.855l-2.131.1-.1.1v.313h.1l.406.1.507.1.1.1.1.1.2.626V443Zm2.131-6.255V435.8l.1-.209.1-.1.508-.1.405-.1h.609l1.116.1,1.014.208.507.1.406.208.406.313.3.209.406.313.3.417.2.313.2.521.2.417.1.521.1.521V440.6l-.1.417-.1.521-.1.417-.406.834-.2.313-.3.313-.3.313-.3.313-.406.209-.406.209-.507.208-.507.1h-.609l-.608.1-.609-.1-.507-.1-.406-.208-.2-.1-.1-.1-.1-.417-.1-.417-.1-.417v-6.255Z" transform="translate(-131.401 -57.963)" fill="#fff" fill-rule="evenodd"/>
    <path id="Trazado_10" data-name="Trazado 10" d="M330.778,443l-.1.625v.73l-.1.209-.2.209h-.2l-.2.1h-.3l-.71.1v.1l-.1.1.1.208h9.638l.3-.417.2-.625.2-.73.1-.521-.1-.1-.2-.1H339l-.2.1-.2.417-.3.417-.2.313-.2.1-.1.1-.406.209-.609.1-.609.1h-.812l-.913-.1h-.609l-.406-.1-.2-.209-.1-.209-.1-.417-.1-.417v-2.919l.1-.1.1-.1h2.13l.406.1h.2l.2.1.1.1.1.209.1.209.1.626.2.1h.3l.1-.1V438.2l-.1-.1h-.3l-.2.1-.1.522-.1.208-.1.208-.1.1-.2.1-.2.1h-2.536l-.1-.1-.1-.1V435.6l.1-.1.1-.1h.1l.507-.1h1.217l.811.1.71.1h.2l.2.1.2.1.1.208.3.417.2.625h.507l.1-.1-.2-1.251-.1-.938h-8.624l-.1.209.1.1v.1l.3.1h.507l.2.1.1.1.1.1.1.209v.313l.1,1.043Z" transform="translate(-153.41 -57.964)" fill="#fff" fill-rule="evenodd"/>
    <path id="Trazado_11" data-name="Trazado 11" d="M370.1,437.056v-1.043l.1-.313.1-.209.1-.1.2-.1.507-.1.406-.1h.1v-.313l-.1-.1h-5.174l-.1.1v.208l.1.1.507.1.507.1.2.1h.1v.1l.1.209.1.313v8.028l-.1.313-.1.209-.1.1-.2.1-.2.1h-.3l-.609.1v.1l-.1.1.1.1.1.1h9.131l.2-.417.2-.625.406-1.251-.3-.1-.1-.1-.2.1-.609.938-.2.313-.3.209-.406.208h-.406l-1.319.1-.913-.1h-.609l-.3-.1-.2-.209-.2-.209-.1-.417v-6.672Z" transform="translate(-176.396 -57.964)" fill="#fff" fill-rule="evenodd"/>
    <path id="Trazado_12" data-name="Trazado 12" d="M398.432,441.1h.507l.2.209.1.209.913,2.189.1.417v.313h-.1l-.1.1h-.405l-.406.1-.1.1v.208l.1.1h4.769l.1-.1v-.208l-.1-.1-.3-.1-.609-.1-.2-.1-.1-.1-.3-.313-.3-.73-2.638-6.777-.913-2.189-.1-.1h-.2l-.405.313-.406.313-.507.1v.208l-.1.313-.2.625-2.638,5.838-.508,1.147-.405.834-.2.313-.2.208-.3.1-.3.1-.609.1v.417h3.957l.1-.208v-.1l-.1-.1-.508-.1h-.3l-.1-.1h-.2v-.417l.2-.521.71-1.981.1-.209.1-.209h2.942Zm-2.131-.73H396l-.1-.1v-.1l.1-.312.71-1.877.609-1.251.2.313.3.938.812,1.981.1.208v.1l-.2.1H396.3Z" transform="translate(-192.048 -57.629)" fill="#fff" fill-rule="evenodd"/>
    <path id="Trazado_13" data-name="Trazado 13" d="M433.622,443v.625l-.1.417v.313l-.1.209-.2.209-.1.1-.609.1h-.3v.1l-.1.1.1.208h5.377v-.312l-.1-.1-.71-.1h-.2l-.3-.1h-.2l-.1-.209-.1-.209-.1-.313V435.6l.1-.208.1-.1h1.42l.2.1.3.1.2.1.2.1.2.1.2.208.2.209.1.209.2.417.2.417v.938l-.1.522-.2.417-.2.313-.3.313-.406.313-.507.209-.609.1v.313l.1.1h1.014l.71-.1.71-.209.71-.312.507-.417.3-.209.2-.312.2-.313.2-.417V438.1l.1-.417-.1-.313v-.417l-.2-.313-.1-.313-.3-.313-.2-.313-.406-.209-.3-.209-.71-.313-.913-.208-1.015-.1h-4.464l-1.015.1-.1.1v.209l.1.1.71.1h.2l.2.1.2.1.1.209v.521l.1.834Z" transform="translate(-216.991 -57.964)" fill="#fff" fill-rule="evenodd"/>
    <path id="Trazado_14" data-name="Trazado 14" d="M459,441.1h.508l.2.209.1.209.913,2.189.1.417v.313h-.1l-.1.1h-.405l-.406.1-.1.1v.208l.1.1h4.768l.1-.1v-.208l-.1-.1-.3-.1-.609-.1-.2-.1-.1-.1-.3-.313-.3-.73-2.638-6.777-.913-2.189-.1-.1h-.2l-.406.313-.406.313-.507.1v.521l-.3.625-2.638,5.838-.507,1.147-.406.834-.2.313-.2.208-.2.1-.406.1-.508.1-.1.1v.312h4.058v-.312l-.1-.1-.507-.1h-.3l-.1-.1h-.1l-.1-.1v-.313l.2-.521.71-1.981.1-.209.1-.209H459Zm-2.13-.73h-.3l-.1-.1v-.1l.1-.312.812-1.877.507-1.251.2.313.406.938.71,1.981.1.208v.1l-.2.1H456.87Z" transform="translate(-229.381 -57.629)" fill="#fff" fill-rule="evenodd"/>
    <path id="Trazado_15" data-name="Trazado 15" d="M488.977,433.988h-1.521l-.2-.1-.1-.1-.1-.1-.1-.1h-.3l-.406,1.355-.406,1.355.1.1.2.1h.1l.2-.1.3-.626.3-.313.2-.209.508-.313.609-.1.71-.1,1.014-.1h2.232l.507.1h.2l-.1.208-.3.417-.913,1.251-4.16,5.421-.609.834-.609.73-.913.938v.1l.1.1h10.349l.2-.417.3-.625.2-.73.2-.834-.1-.1-.2-.1h-.2l-.1.1-.3.521-.3.521-.406.417-.406.209-.507.209-.609.1h-.913l-1.217.1-2.131-.1h-.406l-.2-.1v-.1l.2-.313.406-.625.913-1.147,3.044-3.962,1.623-2.189.71-.834.507-.521v-.209h-7.2Z" transform="translate(-249.923 -57.294)" fill="#fff" fill-rule="evenodd"/>
    <path id="Trazado_16" data-name="Trazado 16" d="M221.774,372.315v1.251H265.5l.1-.208.1-.209.1-.208v-.73l-.2-.208-2.029-.1-1.623-.1-.71-.1-.406-.1h-.2l-.507-.1-.3-.209-.2-.208-.3-.313-.2-.417-.1-.208-.1-.209-.3-.1-.507-.1h-.507l-.71-.1-.812-.1-.71-.209-.609-.209-.507.1H251.2l-.913-.1-.913-.1h-.406l-.2-.1-.2-.1-.1-.209-.1-.208-.3-1.877-.3-2.711v-.939l.1-.1v-.1l1.217.73.3.1.2.1h.507l.609-.1,1.014-.313.71-.208,1.014-.313h.406l.507.1.71.1,1.116.209.507.1h1.015l.3-.208.2-.313.2-.209-.2-1.043.1-.313.1-.209.1-.1h.1l1.522-.1,1.421-.1.2.626-.2.73.1.522.71-.209,1.725-.208,4.261,1.251V362.2l-.1-.313v-.208l-.1-.417.1-.313.1-.208.1-.209.1-.1.3-.1.507-.209,3.146.1,1.725-.1.1-.209.507-.417.2-.209.3-.208.3-.1h.2l.2-.1.1-.1.1-.1v-.208l-.1-.1-.3-.208-1.42-1.981-.71-.313-1.014-.313-.2-.1-.1-.209v-.1l.1-.208v-.1l.1-.1,1.116-.313.812-.209.609-.1h.812v-.312l-.2-.313-.406-.417-3.855-.313-3.145-.209-1.319-.208-.913-.1-.406-.938-.1-.1-.1-.1-.406-.209-.507-.313-.71-.521-.71-.834-.913-.834-.507-.521-.507-.313-.609-.313-.3-.1h-.3v.1l-.2.1h-.2l-.406-.1-.507-.1-.812-.313-1.015-.521-1.014-.417-.811-.313-.812-.209-2.029-.209-.3-.1-.3-.1-.1-.208v-.1l-.1-.208v-.313l.1-.1v-.625l-.2-.209-.3-.313-.507-.209h-.3l-1.015-.208-.609-.209-.71-.313-.812-.417-.406-.313-.406-.313-.1-.1-.507-.1h-1.522l-.913.209-.1.209-.2.208-.3.313-.507.209-.812.209-.913.1h-1.319l-1.725.209-1.42.208-.71.1-.507.1-.71.208v1.564l-.1.1-.1.1-.1.1-.3.209-.3.208.1.313.1.1v.209l-.1.208-.2.1-.507.1-1.42.313-1.928.417v1.355h-3.044l-.507.1-.2.1-.1.1v.1l-.1.313.1.73V352.4l-.1.1-.609-.1-.3-.1-.507-.938v-.209l-.1-.313-.2-.1h-.2l-.2.1-.406.313-.406.626-.3.208-.2.209-.3.209-.3.1-.1.209-.1.1-.1.1v.208l.1.1.3.1h.406l.2.313.3.73.1.417v.417l-.1.417-.1.209-.1.1-.406.521-.2.313-.2.1h-.2l-.913.1-.609.521-1.42.1-.1.521-.1.521-.2.209-.1.1-.3.1-.406.208-1.014.209-.406.1-.406.1-.1.1-.1.1-.1.1v.209l.2.417.71-.1H216.6l.406.1.1.1v.417l1.319-.313.2-.1.2-.1h.609l.2.1.1.1.1.1.1.209.1.313.1.313-.406.312h-2.029l-1.116.1-1.015.1-.913.209-.3.1-.1.1-.1.209-.1.208v.313l.1.1.1.1.2.209.507.1H216.8l1.217-.1,1.116-.209,1.116-.1,1.319-.1,1.319-.1h1.623l1.928.1.3.313.1.73.2.417,2.333.313.913.1,1.116.1h1.014l.913-.1,1.623-.209,1.116-.209.812-.1.3-.1.1-.1.2-.209.1-.1v-.209l-.1-.1-.1-.1-.406-.626,1.623.1v.521l.2.1,1.319.1h1.927l.609.209.3.1.1.1v.209l.3.834.2.73v.625l-3.855,2.606h-1.217l-2.131,1.668-.3.209-.2.1h-.609l-.406-.209-.609-.208h-2.333l-.3.313-.609.417-.507.1-1.116.1-3.145.1Z" transform="translate(-82.656 0)" fill="#fff" fill-rule="evenodd"/>
  </g>
</svg>
