<svg xmlns="http://www.w3.org/2000/svg" width="75.512" height="40" viewBox="0 0 75.512 40">
  <path id="Path_17" data-name="Path 17" d="M223.425,379.1v1.519h53.092l.123-.252.123-.254.123-.253v-.886l-.246-.253-2.464-.127-1.971-.126-.862-.127-.493-.127H270.6l-.616-.126-.369-.253-.246-.253-.37-.38-.246-.506-.123-.252-.123-.254-.37-.126-.615-.126h-.616l-.862-.127-.985-.126-.862-.253-.739-.253-.616.127h-3.7l-1.109-.127-1.109-.126h-.493l-.246-.127-.246-.126-.123-.253-.124-.253-.369-2.278-.37-3.292v-1.14l.123-.126v-.127l1.478.887.369.126.247.127h.615l.739-.127,1.232-.38.862-.253,1.232-.38h.493l.616.127.862.126,1.355.254.616.126h1.232l.369-.253.247-.38.246-.253-.246-1.266.123-.38.123-.253.124-.126h.123l1.848-.126,1.725-.127.246.76-.246.886.123.633.862-.253,2.094-.253,5.174,1.519v-1.266l-.123-.38v-.253l-.123-.506.123-.38.123-.253.123-.253.123-.126.37-.127.615-.253,3.819.127,2.094-.127.123-.253.616-.506.247-.253.369-.253.37-.126h.246l.247-.127.123-.126.123-.127v-.253l-.123-.127-.37-.253-1.725-2.4-.862-.38-1.232-.38-.246-.127-.124-.253v-.127l.124-.253v-.127l.123-.127,1.355-.38.985-.253.739-.126h.986v-.379l-.247-.38-.493-.506-4.681-.38-3.819-.254-1.6-.253-1.108-.127-.493-1.139-.123-.126-.123-.127-.493-.253-.616-.38-.862-.633L273.684,351l-1.108-1.013-.616-.633-.616-.38-.739-.379-.37-.127h-.37v.127l-.246.126h-.246l-.493-.126-.616-.127-.985-.379-1.232-.633-1.232-.506-.985-.38-.986-.253-2.464-.253-.369-.126-.37-.127-.123-.253v-.127l-.123-.253v-.38l.123-.127v-.759l-.246-.253-.37-.38-.616-.253h-.369l-1.232-.253-.739-.253-.862-.38-.986-.506-.493-.38-.492-.38-.123-.127-.616-.126h-1.848l-1.108.253-.123.253-.247.253-.37.38-.616.253-.986.253-1.109.127h-1.6l-2.094.253-1.725.253-.862.127-.616.127-.863.253v1.9l-.123.127-.123.127-.123.126-.37.254-.37.253.123.38.123.126v.253l-.123.253-.246.127-.616.127-1.725.38-2.34.506v1.645h-3.7l-.616.127-.247.127-.124.127v.126l-.123.38.123.886v3.165l-.123.126-.739-.126-.37-.127-.615-1.139v-.253l-.123-.38-.246-.127h-.247l-.246.127-.493.38-.493.76-.369.253-.247.253-.37.253-.37.126-.123.254-.124.126-.123.126v.253l.123.126.369.127h.493l.247.38.369.886.123.506v.506l-.123.506-.123.253-.123.127-.493.633-.246.38-.247.126h-.246l-1.109.127-.739.633-1.725.126-.123.633-.124.633-.246.253-.123.127-.37.126-.493.253-1.232.253-.493.126-.493.127-.123.127-.124.126-.123.127v.253l.247.506.862-.127h1.355l.493.127.123.126v.506l1.6-.38.247-.126.247-.126h.739l.247.126.123.126.123.127.123.253.123.38.123.38-.493.379H218.5l-1.355.127-1.232.126-1.109.253-.369.127-.124.127-.123.253-.123.253v.38l.123.127.123.127.247.253.616.127h2.217l1.478-.127,1.355-.253,1.355-.127,1.6-.127,1.6-.126h1.971l2.34.126.37.38.123.886.247.506,2.833.38,1.109.127,1.355.126h1.232l1.109-.126,1.971-.253,1.355-.253.986-.127.37-.127.123-.126.247-.253.123-.126V369.1l-.123-.126-.124-.127-.493-.76,1.971.127v.633l.247.127,1.6.126h2.34l.739.254.37.126.123.127v.253l.369,1.013.246.886v.759l-4.681,3.165h-1.478l-2.587,2.025-.37.253-.246.127h-.739l-.492-.253-.739-.253h-2.833l-.37.38-.739.506-.615.126-1.356.127-3.819.126Z" transform="translate(-214.063 -340.621)" fill="#327240" fill-rule="evenodd"/>
</svg>
