<svg xmlns="http://www.w3.org/2000/svg" width="23.478" height="20" viewBox="0 0 23.478 20">
  <path id="calendar" d="M15.362,16.185a.857.857,0,0,1-.917.781H13.436c-1.217-.041-1.216-1.522,0-1.563h1.009A.857.857,0,0,1,15.362,16.185Zm3.485-3.751H17.838c-1.217.041-1.216,1.522,0,1.563h1.009C20.064,13.955,20.063,12.475,18.847,12.434Zm0-2.969H17.838c-1.217.041-1.216,1.522,0,1.563h1.009C20.064,10.986,20.063,9.505,18.847,9.464Zm2.8,3.555V7.862H1.834v9.064A1.717,1.717,0,0,0,3.668,18.49H19.81a1.717,1.717,0,0,0,1.834-1.563.929.929,0,0,1,1.834,0,3.434,3.434,0,0,1-3.668,3.126H3.668A3.434,3.434,0,0,1,0,16.927V4.737A3.434,3.434,0,0,1,3.668,1.611H4.815V.83a.93.93,0,0,1,1.834,0v.781h4.127V.83a.93.93,0,0,1,1.834,0v.781h4.173V.83a.93.93,0,0,1,1.834,0v.781H19.81a3.434,3.434,0,0,1,3.668,3.126V13.02A.93.93,0,0,1,21.644,13.02Zm0-6.72V4.737A1.717,1.717,0,0,0,19.81,3.174H18.618v.781a.93.93,0,0,1-1.834,0V3.174H12.61v.781a.93.93,0,0,1-1.834,0V3.174H6.649v.781a.93.93,0,0,1-1.834,0V3.174H3.668A1.717,1.717,0,0,0,1.834,4.737V6.3Zm-7.2,3.165H13.436c-1.217.041-1.216,1.522,0,1.563h1.009C15.661,10.986,15.661,9.505,14.445,9.464Zm0,2.969H13.436c-1.217.041-1.216,1.522,0,1.563h1.009C15.661,13.955,15.661,12.475,14.445,12.434ZM5.644,15.4H4.635c-1.217.041-1.216,1.522,0,1.563H5.644C6.861,16.925,6.86,15.444,5.644,15.4Zm0-5.939H4.635c-1.217.041-1.216,1.522,0,1.563H5.644C6.861,10.986,6.86,9.505,5.644,9.464Zm0,2.969H4.635c-1.217.041-1.216,1.522,0,1.563H5.644C6.861,13.955,6.86,12.475,5.644,12.434Zm4.4-2.969H9.034c-1.217.041-1.216,1.522,0,1.563h1.009C11.259,10.986,11.258,9.505,10.042,9.464Zm0,5.939H9.034c-1.217.041-1.216,1.522,0,1.563h1.009C11.259,16.925,11.258,15.444,10.042,15.4Zm0-2.969H9.034c-1.217.041-1.216,1.522,0,1.563h1.009C11.259,13.955,11.258,12.475,10.042,12.434Z" transform="translate(0 -0.052)" fill="#fff"/>
</svg>
